<?xml version="1.0" encoding="utf-8"?>
<!-- Generator: Adobe Illustrator 19.0.0, SVG Export Plug-In . SVG Version: 6.00 Build 0)  -->
<svg version="1.1" id="Layer_1" xmlns="http://www.w3.org/2000/svg" xmlns:xlink="http://www.w3.org/1999/xlink" x="0px" y="0px"
	 width="64px" height="64px" viewBox="0 0 64 64" style="enable-background:new 0 0 64 64;" xml:space="preserve">
<style type="text/css">
	.st0{fill:#FFFFFF;}
</style>
<g id="XMLID_2_">
	<path id="XMLID_57_" d="M34,33.9v2.8c0,0.1-0.1,0.1-0.1,0.2c0,0.1,0,0.3,0,0.4c0-0.1,0-0.3,0-0.4c0-0.1,0.1-0.1,0.1-0.2V7.5
		C34,16.3,34,25.1,34,33.9z M64,31.4c0-1.5,0-3,0-4.5c0-1.5,0-3,0-4.5c0-3,0-6,0-8.9c0-1.4-0.5-2.1-1.8-2.6
		C52.4,7.4,42.6,3.8,32.8,0.3c-0.5-0.2-1.1-0.2-1.6,0C21.3,3.8,11.4,7.5,1.5,11C0.5,11.4,0,12,0,13.2c0,12.1,0,24.3,0,36.4
		c0,1.1,0.4,1.6,1.3,1.9c9.9,4,19.8,8,29.6,12c0.6,0.2,1.3,0.3,1.9,0.1c0.1,0,0.2-0.1,0.2-0.1c9.8-4,19.6-8,29.4-12
		c1-0.4,1.5-1,1.5-2.2c0-2.7,0-5.5,0-8.2C64,37.9,64,34.7,64,31.4z M2,48V30.4c0-5.2,0.4-10.5,0.4-15.7c0-0.7,0.3-1.2,1.1-1.5
		c8.8-3.2,17.7-6.4,26.6-9.6c0.1,0,0.3,0,0.4,0c0,0.4,0.1,0.8,0.1,1.2c0,10.6,0,21.3,0,31.9c0,0.8,0,1.4-1,1.7
		C21,41.5,12,44.6,3.3,47.8C3.1,47.9,3,47.9,2,48z M37.8,58.8c-4.1,1.9-7.5,1.9-11.5,0c-6.7-3.1-13.7-5.7-20.9-8.6
		c1.9-0.7,3.5-1.3,5.1-1.9c6.8-2.5,13.6-5,20.4-7.4c0.6-0.2,1.4-0.3,2-0.1c8.3,3,16.6,6,24.9,9c0.2,0.1,0.4,0.2,0.9,0.4
		C51.5,53.1,44.5,55.7,37.8,58.8z M41.7,40.3c0-7.1,0-14.2,0.1-21.3c0,0,0.1-0.1,0.2-0.2c3,1.1,6,2.2,9,3.3c0.3,0.1,0.5,0.6,0.5,1
		c0,7.1,0,14.2,0,21.5c-3.2-1.2-6.3-2.3-9.4-3.4C42,41.1,41.7,40.6,41.7,40.3z M61.2,47.4c0,0.2,0,0.3-0.1,0.7
		c-2.2-0.8-4.4-1.5-6.5-2.4c-0.3-0.1-0.4-1-0.4-1.5c0-7.3-0.1-14.5,0-21.8c0-1.5-0.5-2.3-1.9-2.8c-3.6-1.2-7-2.6-10.6-3.8
		c-0.2-0.1-0.3-0.1-0.4-0.1c-0.1,0-0.1,0-0.2-0.1c-0.5-0.1-0.9-0.2-1.2-0.1c-0.6,0.2-0.9,0.8-0.9,2.2c0,6.8,0,13.6,0,20.4v2
		c-2-0.6-3.4-1.1-5-1.8c0,0,0-0.1,0-0.1c-0.1-0.2-0.2-0.4-0.2-0.8c0,0,0,0,0-0.1c0-0.1,0.1-0.3,0.1-0.4c0-0.1,0.1-0.1,0.1-0.2V3.4
		c1,0.5,2.5,1,3.9,1.5c7.5,2.7,14.8,5.4,22.3,8.1c0.7,0.3,1.1,0.5,1.1,1.4C61.3,25.5,61.2,36.4,61.2,47.4z"/>
	<path id="XMLID_8_" class="st0" d="M39,39.9L39,39.9c-2-0.5-3.4-1-5-1.7c-0.4-0.2-0.3-1-0.3-1.5C33.7,27,34,17.2,34,7.5V3.4
		c0,0.1,0,0.1,0,0.2v3.9c0,9.7-0.2,19.5-0.2,29.2c0,0.5,0.1,1.3,0.4,1.5C35.7,38.8,37,39.3,39,39.9z"/>
	<path id="XMLID_48_" d="M25,23.7c0-2.1,0-4.2,0-6.3c0-1.9-0.8-2.4-2.5-1.7c-3.8,1.5-7.5,3-11.3,4.5c-1,0.4-1.4,1-1.4,2.1
		c0.1,4.3,0,8.5,0,12.8c0,1.8,0.7,2.3,2.4,1.6c3.8-1.5,7.5-3,11.3-4.4c1.1-0.4,1.5-1,1.5-2.2C25,27.9,25,25.8,25,23.7z M22.2,29.2
		c0,0.2-0.2,0.6-0.4,0.7c-3,1.2-6,2.4-9.4,3.7c0-3.6,0-6.9,0-10.2c0-0.4,0.3-0.9,0.6-1c3-1.2,6-2.4,9.1-3.6
		C22.3,22.4,22.3,25.8,22.2,29.2z"/>
</g>
</svg>
