<?xml version="1.0" encoding="utf-8"?>
<!-- Generator: Adobe Illustrator 19.0.0, SVG Export Plug-In . SVG Version: 6.00 Build 0)  -->
<svg version="1.1" id="Layer_1" xmlns="http://www.w3.org/2000/svg" xmlns:xlink="http://www.w3.org/1999/xlink" x="0px" y="0px"
	 width="64px" height="64px" viewBox="0 0 64 64" style="enable-background:new 0 0 64 64;" xml:space="preserve">
<style type="text/css">
	.st0{fill:#FFFFFF;}
</style>
<g id="XMLID_2_">
	<path id="XMLID_11_" class="st0" d="M0.1,49.4c0-0.1,0.1-0.1,0.2-0.1c-0.1,0.1-0.1,0.1-0.2,0.2V49.4z"/>
	<path id="XMLID_16_" class="st0" d="M62,48.7c0.2,0,0.5,0,0.7,0C62.4,48.8,62,48.8,62,48.7v-0.8c0-11.9-0.2-23.9-0.2-35.8
		c0-1.2-0.5-1.7-1.5-1.9c1.1,0.1,1.6,0.6,1.6,1.9C61.9,24.1,62,36,62,47.9V48.7z"/>
	<path id="XMLID_17_" class="st0" d="M64,49.3c-0.4-0.5-0.9-0.5-1.4-0.5C63.3,48.8,63.9,48.7,64,49.3z"/>
	<path id="XMLID_37_" d="M64,49.4c0-0.1,0-0.1-0.1-0.2c0,0,0-0.1-0.1-0.1c0,0-0.1-0.1-0.1-0.1c-0.3-0.1-0.7,0-1.2,0h-0.1
		c-0.1,0-0.3-0.2-0.5-0.3c0,0,0,0-0.1,0v-0.8c0-11.9-0.2-23.9-0.2-35.8c0-0.3,0-0.6-0.1-0.8c0-0.1-0.1-0.2-0.1-0.3
		c0-0.1-0.1-0.2-0.2-0.3c-0.1-0.1-0.3-0.3-0.5-0.3c0,0-0.1,0-0.2,0c-0.1,0-0.1-0.1-0.2-0.1c-0.1,0-0.3,0-0.4-0.1c-0.1,0-0.3,0-0.4,0
		c-18.4,0-36.9,0-55.3,0c-0.2,0-0.3,0-0.5,0c-0.1,0-0.1,0-0.2,0c-0.8,0.1-1.1,0.6-1.1,1.8C2.8,24.1,3,36,3,48v0.7
		c-0.3,0-0.5,0.3-0.8,0.3H2.1c-0.6,0-1.2-0.1-1.8,0.4c0,0,0-0.2,0-0.2c0,0,0-0.1-0.1-0.1h0c0,0,0,0.2,0,0.2c0,0-0.1,0.1-0.1,0.1
		c0,0-0.1,0.1-0.1,0.2V57c0,0.1,0,0.2,0.1,0.3c0.2,0.3,0.8,0.4,1.3,0.4c0.1,0,0.2,0,0.3,0c20.3,0,40.6,0,60.9,0c0.1,0,0.1,0,0.2,0
		c0.2,0,0.4,0,0.5-0.1c0.3-0.1,0.6-0.2,0.7-0.4c0-0.1,0.1-0.2,0.1-0.3L64,49.4C64,49.4,64,49.5,64,49.4z M5,13h54v36H28.3
		c0.3-1,0.5-1.3,0.9-1.8c0.4-0.5,0.5-1,0-1.6c-0.3-0.3-0.5-0.8-0.6-1.2c-0.2-0.5-0.6-0.5-1.2-0.5c-4.2,0-8.4,0.2-12.6,0.2H14v5H5V13
		z M61,55H3v-4h58V55z"/>
	<path id="XMLID_12_" class="st0" d="M1.4,57.8c-0.5,0-1.1-0.2-1.3-0.4V57C0.4,57.5,0.9,57.7,1.4,57.8z"/>
	<path id="XMLID_13_" class="st0" d="M63.9,57.3c-0.1,0.2-0.4,0.3-0.7,0.4C63.5,57.6,63.7,57.5,63.9,57.3z"/>
	<polygon id="XMLID_9_" class="st0" points="61,51 61,55 3,55 3,51 3,51 3,55 61,55 61,51 	"/>
	<path id="XMLID_8_" d="M50.7,21.9c-4,2.9-8.1,5.8-12.1,8.7c-1.8,1.3-3.5,2.5-5.3,3.8c-0.9,0.7-1.6,0.5-2.7-0.4
		c-2-1.8-4.1-3.4-6.2-5.2c-3.1,2.4-6.2,4.7-9.3,7c-0.6,0.5-1.5,0.3-1.9-0.3c-0.5-0.6-0.4-1.3,0.4-2c1.8-1.4,3.6-2.8,5.4-4.1
		c1.4-1.1,2.9-2.1,4.3-3.2c0.8-0.6,1.7-0.6,2.5,0.1c1.4,1.2,2.8,2.4,4.3,3.5c0.6,0.5,1.2,1,1.8,1.6c0.3,0.2,0.4,0.3,0.7,0.1
		c2.3-1.6,4.5-3.2,6.8-4.8c1.7-1.2,3.3-2.4,5-3.6c1.6-1.1,3.2-2.3,4.7-3.4c0.7-0.5,1.6-0.4,2.1,0.2C51.6,20.4,51.3,21.4,50.7,21.9z"
		/>
</g>
</svg>
