<?xml version="1.0" encoding="utf-8"?>
<!-- Generator: Adobe Illustrator 19.0.0, SVG Export Plug-In . SVG Version: 6.00 Build 0)  -->
<svg version="1.1" id="Layer_1" xmlns="http://www.w3.org/2000/svg" xmlns:xlink="http://www.w3.org/1999/xlink" x="0px" y="0px"
	 width="64px" height="64px" viewBox="0 0 64 64" style="enable-background:new 0 0 64 64;" xml:space="preserve">
<style type="text/css">
	.st0{fill:#FFFFFF;}
</style>
<g id="XMLID_2_">
	<path id="XMLID_106_" d="M63.7,1.4c-0.3-0.6-0.9-0.9-1.5-1.2c-0.1,0-0.2,0-0.3,0c-1.6,0-3.1-0.1-4.7-0.1c-0.2,0-0.5,0-0.7,0
		c-0.1,0-0.2,0-0.3,0c0,0-0.1,0-0.1,0H45.1c-0.5,0-1,0.1-1.6,0.1c-0.1,0-0.3,0-0.4,0.1c-0.1,0-0.3,0.1-0.4,0.1c-0.1,0-0.1,0-0.2,0.1
		c-0.1,0-0.1,0.1-0.2,0.1c-0.1,0.1-0.2,0.2-0.3,0.2c-0.1,0.1-0.2,0.2-0.2,0.2c-0.1,0.1-0.1,0.2-0.2,0.3c-0.1,0.1-0.1,0.2-0.2,0.3
		c-0.1,0.3-0.3,0.6-0.3,0.9c0,2.9-0.1,5.8-0.1,8.6V12H23v-0.9c0-2.4,0-4.9,0-7.3c0-0.5,0-1,0-1.4c0-0.4-0.2-0.8-0.4-1.1
		c0-0.1-0.1-0.1-0.1-0.2c-0.1-0.1-0.2-0.3-0.3-0.3c0,0,0-0.3,0-0.3c-0.1,0-0.1,0.1-0.2,0.1c0,0,0,0,0,0c0,0,0,0,0-0.1
		c0-0.1,0-0.2-0.1-0.4c0,0,0,0,0-0.1h-0.2c-0.1,0-0.1,0-0.2,0c-0.2-0.1-0.4,0-0.6,0h-1.2c-0.5,0-1.1,0-1.7,0c0,0-0.1,0-0.1,0
		c0,0-0.1,0-0.1,0c-0.1,0-0.2,0-0.3,0H5C4.8,0,4.6,0,4.4,0C4.2,0,4,0,3.8,0c-0.4,0-0.8,0.1-1.2,0c-0.8,0-1.5,0.4-2,0.9
		C0.6,1.1,0.5,1.2,0.5,1.2c0,0-0.1,0.1-0.1,0.1C0.3,1.5,0.2,1.5,0.1,1.6c0,0-0.1,0.1-0.1,0.2c0,0,0,0.1,0,0.2v60.2
		c0,0.1,0.1,0.1,0.1,0.2c0.1,0.1,0.2,0.2,0.2,0.3c0.4,0.6,1,1,1.6,1.3c0,0,0.1,0,0.2,0c0.1,0,0.2,0,0.2,0c1,0,2,0,3.1,0
		c2.9,0,5.8,0,8.7,0c0.1,0,0.3,0,0.4,0H17c0.5,0,1.1,0,1.6,0c1,0,2.1,0,3-0.2c0.1,0,0.2,0,0.3,0c1.5,0.3,2.9,0.2,4.4,0.2
		c0.3,0,0.6,0,0.9,0h9.7c0.3,0,0.6,0,0.8,0c1.1,0,2.3,0,3.4-0.1c0.2,0,0.4,0,0.6-0.1c0.1,0,0.1,0,0.2,0c0.1,0,0.3-0.1,0.4,0
		c0.1,0,0.3,0.1,0.4,0.1c0.1,0,0.1,0,0.2,0c0.2,0,0.3,0,0.5,0.1c0.8,0.1,1.7,0,2.5,0c0.4,0,0.7,0,1.1,0h2.7c0.1,0,0.3,0,0.4,0
		c3.8,0,7.5,0,11.3,0c0.5,0,0.9-0.1,1.2-0.3c0.1-0.1,0.3-0.2,0.4-0.3c0.1,0,0.1-0.1,0.2-0.2c0.2-0.2,0.3-0.3,0.4-0.5
		c0.1-0.2,0.3-0.4,0.4-0.6V2C63.9,1.8,63.8,1.6,63.7,1.4z M21,58.9c0,0.7-0.3,1.5-0.3,2.2c0,0.3-0.2,0.4-0.5,0.4c-1.9,0-3.8,0-5.6,0
		c-3.3,0-6.6,0-9.9,0c-0.5,0-1,0-1.4-0.1c-0.3,0-0.3-0.1-0.3-0.4c0-0.8,0.1-1.5,0.1-2.3V5.3c0-0.7-0.1-1.4-0.1-2.2
		c0-0.3,0-0.5,0.4-0.5c1.3,0,2.5-0.1,3.8-0.1c4.3,0,8.5,0,12.8,0c0.7,0,0.7,0,0.7,0.7c0,2.6,0.1,5.3,0.1,7.9c0,6.9,0,13.8,0,20.8H21
		V58.9z M41,61H23V14h18V61z M61.5,58.3c0,0.9,0,1.7-0.1,2.6c0,0.5-0.1,0.5-0.6,0.5c-1.5,0-2.9,0.1-4.4,0.1c-4,0-7.9,0-11.9,0
		c-1,0-0.9,0.2-0.9-0.9c0-6.5-0.1-13.1-0.1-19.6c0-3,0-5.9,0-8.9H44V3c0-0.1,0-0.1,0-0.2c0-0.1,0-0.2,0-0.2c0,0,0,0,0,0
		c0,0,0,0,0.1,0c5.4,0,10.8,0,16.3,0c0.1,0,0.3,0,0.5,0c0.1,0,0.2,0,0.3,0c0,0,0.1,0,0.1,0c0.1,0,0.2,0.1,0.2,0.3c0,0.1,0,0.2,0,0.3
		c0,1.4,0.1,2.7,0.1,4.1C61.5,24.4,61.5,41.3,61.5,58.3z"/>
	<path id="XMLID_14_" class="st0" d="M21.8,0c0,0,0.1,0.5,0.1,0.5c-0.3-0.2-0.7-0.4-1.1-0.4c-1,0-2.1-0.1-3.1-0.1
		c-0.1,0-0.2-0.1-0.3-0.1H21.8z"/>
	<path id="XMLID_15_" class="st0" d="M22.1,0.5c0,0,0,0.2,0,0.3c-0.1,0-0.1-0.1-0.2-0.2C22,0.6,22.1,0.4,22.1,0.5z"/>
	<path id="XMLID_16_" class="st0" d="M45.1,0c-0.5,0-1,0.1-1.6,0.1c-1,0.1-1.7,0.5-2.2,1.4c-0.1,0.3-0.2,0.6-0.3,0.9
		c0,2.9-0.1,5.8-0.1,8.6V12l0,0v-0.9c0-2.9,0.1-5.8,0.1-8.6c0-0.3,0.1-0.7,0.3-0.9c0.5-0.9,1.2-1.4,2.2-1.5C43.7,0.1,43.9,0,44,0
		H45.1z"/>
	<path id="XMLID_6_" class="st0" d="M64,62.2c-0.1,0.2-0.3,0.4-0.4,0.6c-0.1,0.2-0.3,0.4-0.4,0.5c0,0.1-0.1,0.1-0.2,0.2
		c-0.1,0.1-0.2,0.2-0.4,0.3L64,62.2z"/>
	<path id="XMLID_18_" class="st0" d="M2.1,64c0,0-0.1,0-0.2,0c-0.6-0.3-1.2-0.7-1.6-1.3c0-0.1-0.1-0.2-0.2-0.3v-0.2
		c0.1,0.1,0.2,0.3,0.3,0.5c0.3,0.6,0.9,1,1.5,1.3C2,64,2,64,2.1,64z"/>
	<path id="XMLID_19_" class="st0" d="M61.9,0.1c-1.8,0-3.6,0-5.3,0c-0.1,0-0.2,0-0.4,0h1C58.8,0,60.3,0.1,61.9,0.1z"/>
	<path id="XMLID_9_" class="st0" d="M5,0C4.2,0,3.4,0.1,2.7,0.1c-0.8,0-1.5,0.4-2,0.9C0.4,1.3,0,1.6,0,2V1.6C0,1.4,0.5,1.2,0.6,1
		c0.5-0.6,1.2-1,2-1C2.9,0.1,3.2,0,3.5,0H5z"/>
	<path id="XMLID_100_" class="st0" d="M17,64.1c0.6,0,1.1,0,1.7,0c1,0,2,0,3-0.2c0.1,0,0.2,0,0.3,0c1.5,0.3,2.9,0.2,4.4,0.3
		c0.3,0,0.6,0,0.9,0C23.8,64.1,20.4,64.1,17,64.1z"/>
	<path id="XMLID_99_" class="st0" d="M36.9,64.1c0.3,0,0.6,0,0.8,0c1.1,0,2.3-0.1,3.4-0.1c0.3,0,0.6-0.1,0.8-0.1
		c0.1,0,0.3-0.1,0.4,0c1.2,0.3,2.4,0.2,3.6,0.3c0.4,0,0.7,0,1.1,0C43.7,64.1,40.3,64.1,36.9,64.1z"/>
	<path id="XMLID_89_" class="st0" d="M57.5,48H59C58.5,47.8,58,48,57.5,48z M59.2,48C59.2,48,59.2,48,59.2,48L59,48
		C59,48,59.1,48,59.2,48C59.2,48,59.2,48,59.2,48C59.3,48,59.2,48,59.2,48z M59.9,48.3c0.1,0.1,0.2,0.2,0.2,0.3c0,0,0,0,0,0
		c0,0,0,0,0,0C60.1,48.4,60,48.3,59.9,48.3z M59.6,12.6c-0.1,0-0.1,0.1-0.2,0.1c-1.1,0-2.2,0.1-3.4,0.1c-3.4,0-6.7,0-10.1,0
		c0,0-0.1,0-0.1,0c0,0,0.1,0,0.1,0c3.4,0,6.7,0,10.1,0c1.1,0,2.2-0.1,3.4-0.1c0.3,0,0.4-0.1,0.5-0.3C59.8,12.4,59.7,12.5,59.6,12.6z
		 M45,48.5c0,0.1,0,0.2,0,0.2C45,48.6,45,48.5,45,48.5C45,48.4,45,48.4,45,48.5z M46.3,47.5c-0.2,0-0.3,0-0.5,0.1
		c-0.3,0.1-0.6,0.4-0.7,0.7c0.2-0.4,0.6-0.5,1.2-0.5c2.1,0,4.2,0.2,6.3,0.2H53v-0.5C50,47.5,48.5,47.5,46.3,47.5z M45,11.9
		c0-0.1,0-0.1,0-0.2C45,11.8,45,11.9,45,11.9c0.1,0.4,0.5,0.8,0.9,0.8C45.5,12.7,45,12.2,45,11.9z M44,2.6c-0.1,0-0.1,0,0,0.2
		C44,2.7,44,2.7,44,2.6z"/>
	<path id="XMLID_85_" class="st0" d="M39.7,54.7c0-0.2-0.1-0.3-0.2-0.5c0,0.1,0.1,0.1,0.1,0.2c0,0,0,0,0,0c0.1,0.2,0.1,0.3,0.1,0.5
		c0,0.6-0.5,1-1.2,1h0.1c0.7,0,1.2-0.4,1.2-1C39.7,54.9,39.7,54.8,39.7,54.7z M39.7,22.9c0-0.1,0-0.1-0.1-0.2
		c0.1,0.1,0.1,0.3,0.1,0.4C39.7,23.1,39.7,23,39.7,22.9z M39.3,22.3c-0.2-0.2-0.3-0.4-0.6-0.4c0.1,0,0.2,0.1,0.3,0.2
		C39.2,22.1,39.2,22.2,39.3,22.3c0,0.1,0.1,0.1,0.1,0.2c0,0,0,0.1,0.1,0.1C39.5,22.5,39.4,22.4,39.3,22.3z M38.7,21.9L38.7,21.9
		C38.7,21.9,38.7,21.9,38.7,21.9C38.7,21.9,38.7,21.9,38.7,21.9z M32.4,56.5c-0.1,0-0.1,0-0.2,0c0.4,0,0.8,0,1.2,0
		C33,56.5,32.7,56.5,32.4,56.5z"/>
	<path id="XMLID_23_" d="M18.6,54.8c-0.1,0.1-0.2,0.1-0.3,0.1C16.1,55,14,55,12,55.1V55c-2,0-4.2,0-6.2,0c-0.2,0-0.5,0-0.7,0
		c-0.8-0.1-1.4-1.1-0.9-1.8c0.3-0.4,0.6-0.7,1.1-0.7c3.8,0,7.5,0,11.2,0.1c0.5,0,1.1,0,1.6,0.1c0.6,0,0.9,0.3,1,0.9
		C19.3,54,19,54.6,18.6,54.8z"/>
	<path id="XMLID_22_" d="M19.2,48.8c-0.1,0.6-0.3,0.9-1,1c-1.2,0.1-2.3,0.1-3.5,0.1c-2.9,0-5.7,0-8.6,0c-0.4,0-0.8,0-1.2,0
		c-0.4,0-0.7-0.1-0.9-0.5c-0.2-0.4-0.2-0.8,0.1-1.3c0.2-0.3,0.3-0.5,0.8-0.5c2.1,0,4.1,0,6.1,0v0c3,0,4.3,0,6.3,0c0.2,0,0.6,0,0.8,0
		C18.7,47.6,19.3,48.2,19.2,48.8z"/>
	<path id="XMLID_20_" d="M18.9,12.4c-0.2,0.2-0.5,0.3-0.7,0.3c-0.8,0.1-1.5,0.1-2.3,0.1c-3.4,0-6.8,0-10.3-0.1c-0.2,0-0.4,0-0.7,0
		c-0.8-0.1-1.3-1.1-0.8-1.8c0.2-0.3,0.7-0.5,1.1-0.5c2.2,0,3.7,0,6.7,0v-0.1c2,0,4.1,0.1,6.3,0.1c0.5,0,0.7,0.2,0.9,0.7
		C19.4,11.6,19.2,12,18.9,12.4z"/>
	<path id="XMLID_41_" d="M59.4,49.8c-0.1,0-0.1,0-0.2,0c-2.2,0-4.3,0.1-6.5,0.1c-2.2,0-4.4,0-6.6,0c-0.6,0-1-0.4-1.2-1
		c0-0.1,0-0.2,0-0.3c0-0.5,0.3-0.9,0.8-1.1c0.2,0,0.3-0.1,0.5-0.1c2.2,0,3.7,0,6.7,0V47c1.5,0,3,0.5,4.5,0.5c0,0,0,0.5,0,0.5H59
		c0.1,0,0.1,0,0.2,0h0.1c0,0,0,0,0,0c0.3,0,0.5,0.1,0.7,0.3c0.1,0.1,0.2,0.2,0.2,0.3c0,0,0,0,0,0c0,0,0,0,0,0c0,0,0,0,0,0
		C60.3,49,59.9,49.6,59.4,49.8z"/>
	<path id="XMLID_13_" d="M59.8,54.8c0,0-0.1,0-0.1,0c0,0-0.1,0-0.1,0c0,0-0.1,0-0.1,0c-0.1,0-0.1,0-0.2,0c0,0,0,0-0.1,0
		c-0.1,0-0.3,0-0.4,0c-2.2,0-3.7,0-6.7,0V55h-5.9c-0.6,0-0.9-0.2-1.1-0.8c-0.1-0.4-0.1-0.8,0.1-1.2c0.2-0.3,0.4-0.4,0.7-0.4
		c2.8,0,5.5-0.1,8.3-0.1c1.7,0,3.3,0.1,5,0.1c0.5,0,0.8,0.3,1,0.8C60.2,53.9,60.1,54.6,59.8,54.8z"/>
	<path id="XMLID_21_" d="M60,12.2C60,12.2,60,12.3,60,12.2C60,12.3,60,12.3,60,12.2c-0.1,0.3-0.3,0.4-0.6,0.4
		c-1.1,0-2.2,0.1-3.4,0.1c-3.4,0-6.7,0-10.1,0c0,0-0.1,0-0.1,0C45.5,12.7,45,12.3,45,12c0-0.1,0-0.2,0-0.3c0-0.1,0-0.1,0-0.2
		c0-0.3,0.1-0.7,0.2-0.9c0.2-0.3,0.4-0.6,0.7-0.6H53c1.9,0,3.7,0,5.6,0H59c0.4,0,0.6,0.3,0.8,0.5C60.3,11.1,60.3,11.6,60,12.2z"/>
	<path id="XMLID_32_" d="M39.7,55c0,0.6-0.5,1-1.2,1h-0.1c-1.3,0-2.8,0.2-4.2,0.3c-0.6,0-1.1-0.1-1.9,0c-0.1,0-0.1-0.2-0.2-0.2H32
		l0,0c-1.8,0-3.6,0-5.4,0h-0.1c-0.2,0-0.4,0.2-0.5,0.1c-0.2,0-0.4,0-0.5,0c-0.6-0.1-0.9-0.6-0.9-1.1c0-0.3,0.2-0.6,0.3-0.8
		c0,0,0.1-0.1,0.2-0.1c0.1,0,0.1-0.1,0.2-0.1c0.1-0.1,0.3-0.1,0.4-0.1c4,0,8,0,12,0c0.3,0,0.5,0,0.8,0c0.2,0,0.5,0,0.7,0.1
		c0.1,0.1,0.2,0.1,0.2,0.1c0.1,0.1,0.2,0.2,0.2,0.3c0,0,0,0,0,0c0.1,0.1,0.1,0.2,0.1,0.2C39.7,54.8,39.7,54.9,39.7,55z"/>
	<path id="XMLID_33_" d="M39.7,23.4c0,0.1,0,0.1-0.1,0.2c-0.2,0.5-0.6,0.7-1.1,0.8c-1.5,0-3,0.1-4.5,0.1c-2.5,0-5,0-7.5,0
		c-0.4,0-0.8,0-1.2-0.1c-0.5-0.1-0.9-0.7-0.8-1.2c0-0.1,0-0.2,0-0.2c0.1-0.5,0.5-0.9,1-0.9c2.1,0,4.3,0,6.5,0v-0.1
		c2,0,4.5,0.1,6.6,0.1h0.1c0,0,0-0.1,0.1-0.1c0.1,0,0.2,0,0.3,0.1c0.1,0.1,0.2,0.2,0.3,0.3c0,0.1,0.1,0.1,0.1,0.2c0,0,0,0.1,0.1,0.1
		c0,0,0,0,0,0c0,0,0,0,0,0c0,0,0,0,0,0c0,0.1,0.1,0.1,0.1,0.2C39.7,23.1,39.7,23.2,39.7,23.4z"/>
</g>
</svg>
