<?xml version="1.0" encoding="utf-8"?>
<!-- Generator: Adobe Illustrator 19.0.0, SVG Export Plug-In . SVG Version: 6.00 Build 0)  -->
<svg version="1.1" id="Layer_1" xmlns="http://www.w3.org/2000/svg" xmlns:xlink="http://www.w3.org/1999/xlink" x="0px" y="0px"
	 width="64px" height="64px" viewBox="0 0 64 64" style="enable-background:new 0 0 64 64;" xml:space="preserve">
<style type="text/css">
	.st0{fill:#FFFFFF;}
</style>
<g id="XMLID_2_">
	<path id="XMLID_62_" d="M59.1,17.7c0-0.2,0-0.5-0.1-0.8c-0.1-0.5-0.3-1-0.5-1.3c-0.7-1-1.5-1.9-2.2-2.9c-0.7-1-1.5-1.9-2.2-2.9
		c-1.7-2.3-3.4-4.5-5.1-6.7c-0.7-1-1.5-1.9-2.2-2.8c-0.1-0.1-0.2-0.2-0.2-0.3H6.3c0,0,0,0,0,0C6,1,5.4,1.5,5.4,2.1
		c0,20,0,40.2,0,60.2c0,0.5,0.3,1,0.6,1.5c0,0,0,0,0,0c0,0,0,0,0,0c0,0,0,0,0,0C6.1,63.9,6.2,64,6.3,64h52c0.1,0,0.1,0,0.2-0.1
		c0.2-0.2,0.3-0.5,0.5-0.9c0.1-0.3,0.1-0.5,0.2-0.7c0-0.1,0-0.2,0-0.2C59.2,47.3,59.2,32.5,59.1,17.7z M47,5.6C50,9,52.5,12,55.2,16
		H47V5.6z M57,62H8V3h36.8c0,1,0,2.2,0,3.3c0,3.3,0,6.5,0,9.8c0,2,0.5,2.2,2.4,2.2c3.1,0,5.8,0,9.8,0V62z"/>
	<path id="XMLID_15_" class="st0" d="M58.5,63.9c0.2-0.3,0.3-0.6,0.5-0.9C58.8,63.3,58.7,63.7,58.5,63.9z"/>
	<path id="XMLID_16_" class="st0" d="M58.5,15.6C54.6,10.5,50.6,5,46.7,0h0.2c3.9,5,7.8,10.4,11.7,15.5c0.3,0.3,0.4,0.8,0.5,1.3
		C59,16.4,58.8,16,58.5,15.6z"/>
	<path id="XMLID_18_" class="st0" d="M6,63.8C6,63.8,6,63.8,6,63.8C6,63.8,6,63.8,6,63.8C6,63.8,6,63.8,6,63.8z"/>
	<path id="XMLID_19_" class="st0" d="M6.3,0C6.3,0,6.3,0,6.3,0C6.2,0.1,6,0.2,5.9,0.3c-0.2,0.6-0.6,1-0.8,1.4C5.3,1.2,5.7,0.8,5.9,0
		H6.3z"/>
	<path id="XMLID_13_" class="st0" d="M55.2,16h-0.3C52.5,12,50,9.2,47,6.1V5.6C50,9,52.5,12,55.2,16z"/>
	<path id="XMLID_12_" d="M51,24.3c0,0.4-0.7,1.2-1.1,1.5c-0.3,0.2-0.7,0.2-1.1,0.2H15.9c-0.4,0-0.9-0.1-1.1-0.3
		c-0.5-0.3-1-0.9-1.1-1.4c0-0.3,0.7-0.9,1.1-1.2c0.2-0.2,0.6-0.1,1-0.1h33.1c0.3,0,0.6-0.1,0.8,0C50.2,23.4,50.9,23.8,51,24.3z"/>
	<path id="XMLID_11_" d="M51,32.3c0,1-0.7,1.6-1.6,1.5c-0.2,0-0.5,0.2-0.7,0.2H15.8c-1,0-2.1-0.1-2.1-1.5c0-1.4,1.1-1.5,2-1.5h16.8
		c5.6,0,11.3,0,16.9,0C50.3,31,51,31.3,51,32.3z"/>
	<path id="XMLID_10_" d="M50.4,45.5c-3.2,2.8-6.5,5.7-9.7,8.5c-0.7,0.6-1.4,1.2-2,1.8c-0.8,0.7-1.5,0.6-2.1-0.2
		c-1.3-1.7-2.7-3.4-3.9-5.2c-0.3-0.4,0.1-1.2,0.2-1.9c0.6,0.1,1.5,0,1.8,0.4c1.1,1.3,2.1,2.7,3.2,4.1c3-2.6,5.9-5.2,8.8-7.8
		c0.7-0.6,1.4-1.2,2-1.8c0.6-0.6,1.3-0.8,2-0.1C51.4,44.2,51,44.9,50.4,45.5z"/>
	<path id="XMLID_9_" d="M38.9,16.5c0,1.4-1.2,1.5-2.2,1.5H26.2c-3.5,0-7-0.2-10.5-0.2c-0.5,0-1-0.1-1.4-0.3
		c-0.3-0.3-0.7-0.9-0.6-1.3c0-0.4,0.5-0.8,1-1.1c0.3-0.2,0.7-0.1,1.1-0.1c7,0,14,0.1,21,0.1C37.8,15.1,38.9,15.1,38.9,16.5z"/>
	<path id="XMLID_8_" d="M38.9,40.3c0,1-0.8,1.3-1.7,1.3c-3.7,0-7.4,0-11.1,0c-3.6,0-7.2,0-10.8,0c-0.9,0-1.7-0.1-1.7-1.2
		c0-1.2,0.8-1.4,1.7-1.4h21.9C38.2,39,38.9,39.3,38.9,40.3z"/>
</g>
</svg>
