<?xml version="1.0" encoding="utf-8"?>
<!-- Generator: Adobe Illustrator 19.0.0, SVG Export Plug-In . SVG Version: 6.00 Build 0)  -->
<svg version="1.1" id="Layer_1" xmlns="http://www.w3.org/2000/svg" xmlns:xlink="http://www.w3.org/1999/xlink" x="0px" y="0px"
	 width="64px" height="64px" viewBox="0 0 64 64" style="enable-background:new 0 0 64 64;" xml:space="preserve">
<style type="text/css">
	.st0{fill:#FFFFFF;}
</style>
<g id="XMLID_2_">
	<path id="XMLID_24_" class="st0" d="M27,42v16l0,0V42h10l0,0H27z M34.8,19.1c-0.9-0.7-1.8-1.5-2.6-2.2c-1.8,1.5-3.6,3-5.4,4.5
		c-3,2.4-5.9,4.8-8.9,7.3c-2.7,2.2-5.5,4.5-8.3,6.7C9.2,35.7,9,36,9,36.5v0.1c0-0.5,0.2-0.8,0.6-1.1c2.7-2.2,5.5-4.5,8.2-6.7
		c3-2.4,6-4.9,8.9-7.3c1.8-1.5,3.6-3,5.4-4.5C33,17.7,33.9,18.4,34.8,19.1z"/>
	<path id="XMLID_9_" d="M64,32.1v0.6c-1,1.1-1.7,2.2-2.5,3.3c-0.6,0.7-1.2,0.8-1.9,0.2c-1.2-0.9-2.3-1.9-3.4-2.8
		c-1.9-1.6-3.8-3.2-5.7-4.8c-1.6-1.3-3.2-2.7-4.8-4c-1.9-1.6-3.8-3.1-5.7-4.7c-1.6-1.4-3.2-2.7-4.8-4.1c-1-0.8-1.9-1.6-3-2.5
		c-1,0.8-2,1.7-3,2.5c-1.9,1.6-3.8,3.1-5.7,4.7c-1.6,1.3-3.2,2.7-4.8,4c-1.9,1.6-3.9,3.2-5.8,4.8c-1.6,1.4-3.2,2.7-4.8,4.1
		C7,34.4,6,35.3,4.9,36.1c-0.9,0.7-1.7,0.6-2.4-0.3c-0.8-1-1.5-2.1-2.5-3.1v-0.6c1-0.7,1.6-1.5,2.4-2.2c1.6-1.4,3.3-2.7,4.9-4
		c1.9-1.6,3.9-3.2,5.8-4.8c1.6-1.3,3.1-2.6,4.7-3.9c1.9-1.6,3.9-3.2,5.8-4.8c1.6-1.3,3.2-2.7,4.8-4c1.5-1.4,3.2-2,5.2-1.4
		c0.8,0.2,1.5,0.7,2.1,1.2c2,1.6,3.8,3.2,5.8,4.8c1,0.9,2.2,1.8,3.2,2.6c0.1,0.1,0.4,0.1,0.4,0.2v-1.5c0-2,0-4-0.1-6
		c0-0.9,0.4-1.5,1.4-1.5c2.4,0,4.8,0,7.2,0c1,0,1.4,0.6,1.4,1.7c0,5,0,10.1,0,15.1c0,0.5,0.1,0.8,0.5,1.1c1.9,1.5,3.7,3.1,5.6,4.6
		c0.8,0.7,1.6,1.4,2.5,2.1C63.7,31.6,64,31.9,64,32.1z"/>
	<path id="XMLID_14_" d="M55,36.2c0,6.3,0,12.5,0,18.8c0,1.5-1.1,2.6-2.7,2.6c-4.9,0.1-10,0-14.9,0c-0.1,0-0.3,0-0.3-0.1V42H27v16
		l0,0H12.3c-2.1,0-3.2-1.2-3.2-3.3c0-6-0.1-12.2-0.1-18.2v-0.1c0-0.4,0.2-0.7,0.6-1c2.7-2.2,5.5-4.5,8.2-6.7c3-2.4,6-4.8,8.9-7.3
		c1.8-1.5,3.6-3,5.4-4.5c0.9,0.7,1.8,1.5,2.6,2.2c0.9,0.7,1.7,1.4,2.6,2.1c1.7,1.4,3.5,2.8,5.2,4.3c1.8,1.5,3.6,3,5.4,4.5
		c1.8,1.5,3.6,3,5.4,4.4c0.5,0.4,1,0.8,1.4,1.2C54.9,35.7,55,36,55,36.2z"/>
</g>
</svg>
