<?xml version="1.0" encoding="utf-8"?>
<!-- Generator: Adobe Illustrator 19.0.0, SVG Export Plug-In . SVG Version: 6.00 Build 0)  -->
<svg version="1.1" id="Layer_1" xmlns="http://www.w3.org/2000/svg" xmlns:xlink="http://www.w3.org/1999/xlink" x="0px" y="0px"
	 width="64px" height="64px" viewBox="0 0 64 64" style="enable-background:new 0 0 64 64;" xml:space="preserve">
<g id="XMLID_10_">
	<path id="XMLID_71_" d="M49.8,60H16.2c-1.7,0-3.2-1.4-3.2-3.2V8.2C13,6.4,14.4,5,16.2,5h24.5c0.6,0,1.2,0.2,1.7,0.5
		c0.2,0.1,0.3,0.2,0.5,0.4l9.2,8.9c0.4,0.3,0.6,0.7,0.8,1.2c0.1,0.3,0.2,0.7,0.2,1.1v39.8C53,58.6,51.6,60,49.8,60z M16.2,8
		C16.1,8,16,8.1,16,8.2v48.7c0,0.1,0.1,0.2,0.2,0.2h33.7c0.1,0,0.2-0.1,0.2-0.2V17.1c0,0,0,0,0-0.1l-9.4-9H16.2z"/>
</g>
<g id="XMLID_7_">
	<path id="XMLID_68_" d="M51.4,18h-7C42,18,40,16,40,13.6V6.8c0-0.5,0.3-1,0.8-1.3c0.5-0.3,1-0.3,1.5,0c0.2,0.1,0.4,0.3,0.6,0.4
		l9.2,8.9c0.4,0.3,0.6,0.7,0.8,1.2c0.2,0.5,0.1,1-0.2,1.4C52.3,17.8,51.9,18,51.4,18z M43,10.3v3.4c0,0.8,0.6,1.4,1.4,1.4h3.5
		L43,10.3z"/>
</g>
<g id="XMLID_1_">
	<path id="XMLID_59_" d="M22,11c0,0-0.1,0-0.1,0c-0.4-0.1-0.7-0.2-1.1-0.2c-0.2,0-0.4,0-0.6,0s-0.4,0.1-0.6,0.1c0,0.3,0,0.8,0,1.4
		c0.1,0,0.6-0.1,1.3-0.1c0.4,0,0.7-0.1,0.8-0.1c0.1,0,0.2,0,0.3,0.1c0.1,0.1,0.1,0.2,0.1,0.3c0,0.3-0.1,0.4-0.4,0.5
		c-0.2,0-0.5,0-0.8,0.1c-0.3,0-0.8,0.1-1.5,0.1c0,0.3,0,0.5,0,0.7c0,0.4,0,0.7,0.1,0.8c0,0,0.2,0,0.4,0c0.1,0,0.4,0,0.6,0
		s0.5,0,0.6,0c0,0,0.1,0,0.2,0s0.2,0,0.2,0c0.1,0,0.2,0,0.3,0.1c0.1,0.1,0.2,0.2,0.2,0.4c0,0.3-0.1,0.4-0.4,0.5
		c-0.2,0-0.7,0.1-1.4,0.1c-0.7,0-1.2-0.1-1.5-0.3c-0.2-0.2-0.4-0.7-0.4-1.4c0-0.3,0-0.8,0.1-1.4c0-0.6,0.1-1.1,0.1-1.4
		c0-0.1,0-0.2,0-0.4c0-0.2,0-0.3,0-0.4c0-0.3,0.2-0.5,0.5-0.5c0.1,0,0.2,0,0.3,0.1c0.3-0.1,0.5-0.1,0.8-0.1c0.2,0,0.5,0,0.7,0
		c0.6,0,1,0.1,1.4,0.2c0.2,0.1,0.3,0.2,0.3,0.4c0,0.1,0,0.2-0.1,0.3C22.3,10.9,22.2,11,22,11z"/>
	<path id="XMLID_61_" d="M26.3,12.6c-0.1,0.1-0.3,0.3-0.5,0.4l-0.5,0.5l1,1.3c0.1,0.1,0.1,0.2,0.1,0.3c0,0.1,0,0.2-0.1,0.3
		s-0.2,0.1-0.3,0.1c-0.1,0-0.2-0.1-0.3-0.2c-0.2-0.2-0.5-0.6-1-1.2c-0.2,0.2-0.5,0.5-0.9,0.8c-0.1,0.1-0.2,0.2-0.3,0.3
		c-0.1,0.1-0.2,0.2-0.3,0.2c-0.1,0-0.2,0-0.3-0.1c-0.1-0.1-0.1-0.2-0.1-0.3c0-0.1,0.1-0.3,0.3-0.5c0.2-0.1,0.3-0.3,0.5-0.4
		c0.1-0.1,0.4-0.4,0.6-0.6c-0.1-0.2-0.3-0.4-0.4-0.5c-0.2-0.2-0.3-0.4-0.4-0.5c-0.1-0.1-0.2-0.2-0.2-0.3c0-0.1,0-0.2,0.1-0.3
		c0.1-0.1,0.2-0.1,0.3-0.1c0.2,0,0.4,0.2,0.7,0.5l0.5,0.7c0.2-0.2,0.4-0.3,0.6-0.5c0.2-0.2,0.4-0.4,0.5-0.5c0.1-0.1,0.2-0.2,0.4-0.2
		c0.1,0,0.2,0,0.3,0.1c0.1,0.1,0.1,0.2,0.1,0.3C26.7,12.1,26.6,12.3,26.3,12.6z"/>
	<path id="XMLID_63_" d="M30.1,15.5c-0.1,0-0.3-0.1-0.5-0.3c-0.2,0.1-0.4,0.2-0.6,0.2c-0.2,0.1-0.3,0.1-0.4,0.1
		c-0.5,0-1-0.1-1.2-0.4c-0.3-0.3-0.4-0.7-0.4-1.3c0-0.5,0.2-1,0.6-1.4c0.4-0.4,0.9-0.6,1.5-0.6c0.2,0,0.5,0.1,0.8,0.2
		c0.3,0.1,0.5,0.3,0.5,0.5c0,0.1,0,0.2-0.1,0.2c0,0.1,0,0.2-0.1,0.3c0,0.1,0,0.3,0,0.5c0,0.4,0,0.7,0.1,0.9c0,0,0.1,0.1,0.2,0.4
		c0.1,0.2,0.1,0.3,0.1,0.3c0,0.1,0,0.2-0.1,0.3C30.3,15.5,30.2,15.5,30.1,15.5z M29.2,13.2c0-0.1,0-0.2,0-0.3c0-0.1,0-0.2,0-0.3
		c0,0-0.1,0-0.1,0c0,0-0.1,0-0.1,0c-0.3,0-0.6,0.1-0.8,0.4c-0.2,0.2-0.3,0.5-0.3,0.8c0,0.3,0.1,0.5,0.2,0.7c0.1,0.2,0.3,0.2,0.5,0.2
		c0.1,0,0.3,0,0.4-0.1c0.1,0,0.2-0.1,0.4-0.2C29.2,13.9,29.2,13.5,29.2,13.2z"/>
	<path id="XMLID_66_" d="M31.9,12.3c0.3-0.4,0.7-0.6,1-0.6c0.4,0,0.6,0.1,0.8,0.4c0.1-0.1,0.3-0.2,0.5-0.3s0.4-0.1,0.5-0.1
		c0.4,0,0.8,0.2,0.9,0.7c0,0.1,0.1,0.4,0.1,0.9c0.1,0.4,0.1,1,0.2,1.8c0,0.1,0,0.2-0.1,0.3s-0.2,0.1-0.3,0.1c-0.3,0-0.4-0.1-0.5-0.4
		c0-0.2-0.1-0.6-0.1-1c0-0.5-0.1-0.8-0.1-1c-0.1-0.4-0.1-0.6-0.2-0.6c-0.1,0-0.2,0.1-0.4,0.2s-0.3,0.2-0.4,0.3c0,0.3,0,0.6,0.1,1.1
		c0.1,0.5,0.1,0.9,0.1,1.1c0,0.1,0,0.2-0.1,0.3s-0.2,0.1-0.3,0.1s-0.2,0-0.3-0.1S33,15.4,33,15.3c0-0.3,0-0.6-0.1-1.1
		c-0.1-0.5-0.1-0.9-0.1-1.1c0-0.1,0-0.3,0-0.3c-0.3,0.2-0.5,0.4-0.8,0.8c0,0,0,0-0.1,0.1c0,0.5,0,0.8,0,1.1c0,0.1,0,0.1,0,0.3
		c0,0.1,0,0.2,0,0.2c0,0.1-0.1,0.2-0.2,0.3c-0.1,0.1-0.2,0.1-0.3,0.1c-0.2,0-0.3-0.1-0.4-0.3c0-0.1-0.1-0.3-0.1-0.5v-1.3
		c0-0.1,0-0.3,0-0.5c0-0.2,0-0.4,0-0.5c0-0.2,0-0.4,0.1-0.6c0.1-0.2,0.2-0.3,0.4-0.3c0.1,0,0.2,0,0.3,0.1c0.1,0.1,0.2,0.2,0.2,0.3
		C31.9,12,31.9,12.1,31.9,12.3z"/>
</g>
<g id="XMLID_11_">
	<g id="XMLID_17_">
		<path id="XMLID_56_" d="M25.5,50.5h-5.9c-0.7,0-1.3-0.6-1.3-1.3v-5.9c0-0.7,0.6-1.3,1.3-1.3h5.9c0.7,0,1.3,0.6,1.3,1.3v5.9
			C26.8,49.9,26.2,50.5,25.5,50.5z M20.3,48.5h4.5V44h-4.5V48.5z"/>
	</g>
	<g id="XMLID_12_">
		<g id="XMLID_16_">
			<rect id="XMLID_55_" x="29" y="43" width="18" height="1"/>
		</g>
		<g id="XMLID_15_">
			<rect id="XMLID_54_" x="29" y="47" width="18" height="1"/>
		</g>
		<g id="XMLID_14_">
			<rect id="XMLID_53_" x="29" y="45" width="18" height="1"/>
		</g>
		<g id="XMLID_13_">
			<rect id="XMLID_52_" x="29" y="49" width="18" height="1"/>
		</g>
	</g>
</g>
<g id="XMLID_21_">
	<g id="XMLID_9_">
		<g id="XMLID_2_">
			<path id="XMLID_49_" d="M25.5,28.5h-5.9c-0.7,0-1.3-0.6-1.3-1.3v-5.9c0-0.7,0.6-1.3,1.3-1.3h5.9c0.7,0,1.3,0.6,1.3,1.3v5.9
				C26.8,27.9,26.2,28.5,25.5,28.5z M20.3,26.5h4.5V22h-4.5V26.5z"/>
		</g>
		<g id="XMLID_8_">
			<g id="XMLID_3_">
				<rect id="XMLID_48_" x="29" y="21" width="18" height="1"/>
			</g>
			<g id="XMLID_4_">
				<rect id="XMLID_47_" x="29" y="25" width="18" height="1"/>
			</g>
			<g id="XMLID_5_">
				<rect id="XMLID_46_" x="29" y="23" width="18" height="1"/>
			</g>
			<g id="XMLID_6_">
				<rect id="XMLID_45_" x="29" y="27" width="18" height="1"/>
			</g>
		</g>
	</g>
	<g id="XMLID_20_">
		<g id="XMLID_18_">
			
				<rect id="XMLID_44_" x="20.7" y="24.4" transform="matrix(0.7071 0.7071 -0.7071 0.7071 23.7751 -8.1638)" width="2" height="0.5"/>
		</g>
		<g id="XMLID_19_">
			
				<rect id="XMLID_43_" x="23.1" y="22.6" transform="matrix(0.7071 0.7071 -0.7071 0.7071 24.0038 -9.4238)" width="0.5" height="3.3"/>
		</g>
	</g>
</g>
<g id="XMLID_22_">
	<g id="XMLID_26_">
		<g id="XMLID_32_">
			<path id="XMLID_40_" d="M25.5,39.5h-5.9c-0.7,0-1.3-0.6-1.3-1.3v-5.9c0-0.7,0.6-1.3,1.3-1.3h5.9c0.7,0,1.3,0.6,1.3,1.3v5.9
				C26.8,38.9,26.2,39.5,25.5,39.5z M20.3,37.5h4.5V33h-4.5V37.5z"/>
		</g>
		<g id="XMLID_27_">
			<g id="XMLID_31_">
				<rect id="XMLID_39_" x="29" y="32" width="18" height="1"/>
			</g>
			<g id="XMLID_30_">
				<rect id="XMLID_38_" x="29" y="36" width="18" height="1"/>
			</g>
			<g id="XMLID_29_">
				<rect id="XMLID_37_" x="29" y="34" width="18" height="1"/>
			</g>
			<g id="XMLID_28_">
				<rect id="XMLID_36_" x="29" y="38" width="18" height="1"/>
			</g>
		</g>
	</g>
	<g id="XMLID_23_">
		<g id="XMLID_25_">
			
				<rect id="XMLID_35_" x="20.4" y="35.4" transform="matrix(0.7071 0.7071 -0.7071 0.7071 31.4556 -4.7062)" width="2" height="0.5"/>
		</g>
		<g id="XMLID_24_">
			
				<rect id="XMLID_34_" x="22.8" y="33.6" transform="matrix(0.7071 0.7071 -0.7071 0.7071 31.6843 -5.9662)" width="0.5" height="3.3"/>
		</g>
	</g>
</g>
</svg>
