<?xml version="1.0" encoding="utf-8"?>
<!-- Generator: Adobe Illustrator 19.0.0, SVG Export Plug-In . SVG Version: 6.00 Build 0)  -->
<svg version="1.1" id="Layer_1" xmlns="http://www.w3.org/2000/svg" xmlns:xlink="http://www.w3.org/1999/xlink" x="0px" y="0px"
	 width="400px" height="400px" viewBox="0 0 400 400" style="enable-background:new 0 0 400 400;" xml:space="preserve">
<style type="text/css">
	.st0{stroke:#000000;stroke-width:2;stroke-miterlimit:10;}
	.st1{fill:#211915;stroke:#000000;stroke-width:2;stroke-miterlimit:10;}
</style>
<g id="XMLID_54_">
	<path id="XMLID_92_" class="st0" d="M317.2,371.4H82.5c-2.9,0-5.3-2.4-5.3-5.3V34.6c0-2.9,2.4-5.3,5.3-5.3h209.9
		c0.8,0,1.5,0.2,2.2,0.5c0.6,0.3,1.1,0.6,1.5,1.1l24.7,24.7c0.4,0.4,0.8,1,1.1,1.5c0.3,0.7,0.5,1.4,0.5,2.2v306.8
		C322.4,369,320.1,371.4,317.2,371.4z M82.5,30.4c-2.3,0-4.3,1.9-4.3,4.3v331.5c0,2.3,1.9,4.3,4.3,4.3h234.6c2.3,0,4.3-1.9,4.3-4.3
		V59.4c0-0.6-0.1-1.2-0.4-1.8c-0.2-0.5-0.5-0.9-0.9-1.2l-24.7-24.7c-0.4-0.4-0.8-0.6-1.2-0.9c-0.6-0.3-1.2-0.4-1.8-0.4H82.5z"/>
</g>
<g id="XMLID_39_">
	<path id="XMLID_89_" class="st1" d="M321.5,57.9H298c-2.2,0-4.1-1.8-4.1-4.1V30.3c0-0.2,0.1-0.3,0.2-0.4c0.1-0.1,0.3-0.1,0.5,0
		c0.6,0.3,1.1,0.6,1.5,1.1l24.7,24.7c0.4,0.4,0.8,1,1.1,1.5c0.1,0.2,0.1,0.3,0,0.5C321.8,57.8,321.7,57.9,321.5,57.9z M294.9,31.2
		v22.6c0,1.7,1.4,3.1,3.1,3.1h22.6c-0.1-0.2-0.3-0.4-0.5-0.5l-24.7-24.7C295.3,31.5,295.1,31.3,294.9,31.2z"/>
</g>
<g id="XMLID_33_">
	<path id="XMLID_80_" class="st0" d="M111.2,48.2h8.6v1.5h-7.1v4.7h7.1v1.5h-7.1v5.9h7.1v1.5h-8.6V48.2z"/>
	<path id="XMLID_82_" class="st0" d="M121,52.1h1.7l3,4.1l2.9-4.1h1.7l-3.8,5.3l4.3,5.9h-1.7l-3.4-4.7l-3.4,4.7h-1.7l4.2-5.9
		L121,52.1z"/>
	<path id="XMLID_84_" class="st0" d="M143.4,52.1v11.2H142v-1.9c-0.6,0.7-1.3,1.3-2,1.7c-0.7,0.4-1.6,0.6-2.5,0.6
		c-1.6,0-2.9-0.6-4-1.7c-1.1-1.1-1.7-2.5-1.7-4.2c0-1.6,0.6-3,1.7-4.1s2.5-1.7,4.1-1.7c0.9,0,1.7,0.2,2.5,0.6c0.7,0.4,1.4,1,2,1.8
		v-2.1H143.4z M137.7,53.2c-0.8,0-1.5,0.2-2.2,0.6c-0.7,0.4-1.2,0.9-1.6,1.7s-0.6,1.5-0.6,2.3c0,0.8,0.2,1.5,0.6,2.3
		c0.4,0.7,0.9,1.3,1.6,1.7s1.4,0.6,2.2,0.6c0.8,0,1.5-0.2,2.2-0.6s1.2-0.9,1.6-1.6c0.4-0.7,0.6-1.4,0.6-2.3c0-1.3-0.4-2.4-1.3-3.2
		S139,53.2,137.7,53.2z"/>
	<path id="XMLID_87_" class="st0" d="M146.7,52.1h1.4V54c0.5-0.7,1-1.2,1.5-1.6c0.7-0.4,1.5-0.7,2.3-0.7c0.5,0,1.1,0.1,1.5,0.3
		c0.5,0.2,0.9,0.5,1.2,0.8c0.3,0.4,0.6,0.9,0.8,1.5c0.5-0.9,1.1-1.5,1.8-2c0.7-0.5,1.5-0.7,2.3-0.7c0.8,0,1.5,0.2,2,0.6
		s1,0.9,1.3,1.6s0.4,1.7,0.4,3.1v6.1h-1.5v-6.1c0-1.2-0.1-2-0.3-2.5c-0.2-0.4-0.5-0.8-0.9-1.1s-0.9-0.4-1.5-0.4
		c-0.7,0-1.3,0.2-1.9,0.6s-1,1-1.3,1.6s-0.4,1.8-0.4,3.4v4.4h-1.4v-5.7c0-1.3-0.1-2.3-0.3-2.7c-0.2-0.5-0.5-0.9-0.9-1.2
		c-0.4-0.3-0.9-0.4-1.5-0.4c-0.7,0-1.3,0.2-1.9,0.6c-0.6,0.4-1,0.9-1.3,1.6c-0.3,0.7-0.4,1.7-0.4,3.1v4.7h-1.4V52.1z"/>
</g>
<g id="XMLID_43_">
	<g id="XMLID_36_">
		<g id="XMLID_3_">
			<path id="XMLID_77_" class="st1" d="M152.2,324.3h-43.3v-43.3h43.3V324.3z M109.9,323.3h41.3v-41.3h-41.3V323.3z"/>
		</g>
		<g id="XMLID_22_">
			<g id="XMLID_26_">
				<rect id="XMLID_76_" x="165.1" y="286.6" class="st1" width="125.2" height="1"/>
			</g>
			<g id="XMLID_25_">
				<rect id="XMLID_75_" x="165.1" y="296.9" class="st1" width="123.4" height="1"/>
			</g>
			<g id="XMLID_24_">
				<rect id="XMLID_74_" x="165.1" y="307.3" class="st1" width="121.2" height="1"/>
			</g>
			<g id="XMLID_23_">
				<rect id="XMLID_73_" x="165.1" y="317.6" class="st1" width="121.2" height="1"/>
			</g>
		</g>
	</g>
	<g id="XMLID_29_">
		<g id="XMLID_11_">
			<g id="XMLID_7_">
				<rect id="XMLID_72_" x="165.1" y="110.7" class="st1" width="125.2" height="1"/>
			</g>
			<g id="XMLID_8_">
				<rect id="XMLID_71_" x="165.1" y="121" class="st1" width="123.4" height="1"/>
			</g>
			<g id="XMLID_9_">
				<rect id="XMLID_70_" x="165.1" y="131.4" class="st1" width="121.2" height="1"/>
			</g>
			<g id="XMLID_10_">
				<rect id="XMLID_69_" x="165.1" y="141.8" class="st1" width="121.2" height="1"/>
			</g>
		</g>
		<g id="XMLID_1_">
			<g id="XMLID_2_">
				<path id="XMLID_66_" class="st1" d="M152.2,148.4h-43.3V105h43.3V148.4z M109.9,147.4h41.3V106h-41.3V147.4z"/>
			</g>
			<g id="XMLID_28_">
				<g id="XMLID_27_">
					<path id="XMLID_65_" class="st1" d="M126.9,134.3c-0.1,0-0.3-0.1-0.4-0.2l-0.7-0.7c-0.1-0.1-0.1-0.2-0.1-0.4s0.1-0.3,0.2-0.3
						l15.3-13.4c0.2-0.2,0.5-0.2,0.7,0l0.7,0.7c0.1,0.1,0.1,0.2,0.1,0.4s-0.1,0.3-0.2,0.3l-15.3,13.4
						C127.2,134.3,127,134.3,126.9,134.3z"/>
				</g>
				<g id="XMLID_6_">
					<path id="XMLID_64_" class="st1" d="M126.8,134.3C126.8,134.3,126.8,134.3,126.8,134.3c-0.2,0-0.3-0.1-0.4-0.2l-8-9.1
						c-0.2-0.2-0.2-0.5,0-0.7l0.7-0.7c0.1-0.1,0.2-0.1,0.4-0.1c0.1,0,0.3,0.1,0.3,0.2l8,9.1c0.2,0.2,0.2,0.5,0,0.7l-0.7,0.7
						C127.1,134.3,127,134.3,126.8,134.3z"/>
				</g>
			</g>
		</g>
	</g>
	<g id="XMLID_5_">
		<g id="XMLID_30_">
			<g id="XMLID_35_">
				<rect id="XMLID_63_" x="165.1" y="169.3" class="st1" width="125.2" height="1"/>
			</g>
			<g id="XMLID_34_">
				<rect id="XMLID_62_" x="165.1" y="179.7" class="st1" width="123.4" height="1"/>
			</g>
			<g id="XMLID_32_">
				<rect id="XMLID_61_" x="165.1" y="190" class="st1" width="121.2" height="1"/>
			</g>
			<g id="XMLID_31_">
				<rect id="XMLID_60_" x="165.1" y="200.4" class="st1" width="121.2" height="1"/>
			</g>
		</g>
		<g id="XMLID_12_">
			<g id="XMLID_16_">
				<path id="XMLID_57_" class="st1" d="M152.2,207h-43.3v-43.3h43.3V207z M109.9,206h41.3v-41.3h-41.3V206z"/>
			</g>
			<g id="XMLID_13_">
				<g id="XMLID_15_">
					<path id="XMLID_56_" class="st1" d="M126.9,192.9c-0.1,0-0.3-0.1-0.4-0.2l-0.7-0.7c-0.1-0.1-0.1-0.2-0.1-0.4s0.1-0.3,0.2-0.3
						l15.3-13.4c0.2-0.2,0.5-0.2,0.7,0l0.7,0.7c0.1,0.1,0.1,0.2,0.1,0.4s-0.1,0.3-0.2,0.3l-15.3,13.4
						C127.2,192.9,127,192.9,126.9,192.9z"/>
				</g>
				<g id="XMLID_14_">
					<path id="XMLID_55_" class="st1" d="M126.8,192.9C126.8,192.9,126.8,192.9,126.8,192.9c-0.2,0-0.3-0.1-0.4-0.2l-8-9.1
						c-0.2-0.2-0.2-0.5,0-0.7l0.7-0.7c0.1-0.1,0.2-0.1,0.4-0.1c0.1,0,0.3,0.1,0.3,0.2l8,9.1c0.2,0.2,0.2,0.5,0,0.7l-0.7,0.7
						C127.1,192.9,127,192.9,126.8,192.9z"/>
				</g>
			</g>
		</g>
	</g>
	<g id="XMLID_4_">
		<g id="XMLID_37_">
			<g id="XMLID_42_">
				<rect id="XMLID_53_" x="165.1" y="227.9" class="st1" width="125.2" height="1"/>
			</g>
			<g id="XMLID_41_">
				<rect id="XMLID_52_" x="165.1" y="238.3" class="st1" width="123.4" height="1"/>
			</g>
			<g id="XMLID_40_">
				<rect id="XMLID_51_" x="165.1" y="248.7" class="st1" width="121.2" height="1"/>
			</g>
			<g id="XMLID_38_">
				<rect id="XMLID_50_" x="165.1" y="259" class="st1" width="121.2" height="1"/>
			</g>
		</g>
		<g id="XMLID_17_">
			<g id="XMLID_21_">
				<path id="XMLID_47_" class="st1" d="M152.2,265.6h-43.3v-43.3h43.3V265.6z M109.9,264.6h41.3v-41.3h-41.3V264.6z"/>
			</g>
			<g id="XMLID_18_">
				<g id="XMLID_20_">
					<path id="XMLID_46_" class="st1" d="M126.9,251.6C126.9,251.6,126.9,251.6,126.9,251.6c-0.2,0-0.3-0.1-0.4-0.2l-0.7-0.7
						c-0.2-0.2-0.2-0.5,0-0.7l15.3-13.4c0.1-0.1,0.2-0.1,0.4-0.1c0.1,0,0.3,0.1,0.3,0.2l0.7,0.7c0.2,0.2,0.2,0.5,0,0.7l-15.3,13.4
						C127.2,251.5,127,251.6,126.9,251.6z"/>
				</g>
				<g id="XMLID_19_">
					<path id="XMLID_45_" class="st1" d="M126.8,251.6C126.8,251.6,126.8,251.6,126.8,251.6c-0.2,0-0.3-0.1-0.4-0.2l-8-9.1
						c-0.2-0.2-0.2-0.5,0-0.7l0.7-0.7c0.1-0.1,0.2-0.1,0.4-0.1c0.1,0,0.3,0.1,0.3,0.2l8,9.1c0.2,0.2,0.2,0.5,0,0.7l-0.7,0.7
						C127.1,251.5,127,251.6,126.8,251.6z"/>
				</g>
			</g>
		</g>
	</g>
</g>
</svg>
