<?xml version="1.0" encoding="utf-8"?>
<!-- Generator: Adobe Illustrator 19.0.0, SVG Export Plug-In . SVG Version: 6.00 Build 0)  -->
<svg version="1.1" id="Layer_1" xmlns="http://www.w3.org/2000/svg" xmlns:xlink="http://www.w3.org/1999/xlink" x="0px" y="0px"
	 width="64px" height="64px" viewBox="0 0 64 64" style="enable-background:new 0 0 64 64;" xml:space="preserve">
<style type="text/css">
	.st0{fill:#FFFFFF;stroke:#211915;stroke-width:0.75;stroke-miterlimit:10;}
	.st1{fill:#FFFFFF;stroke:#211915;stroke-width:0.75;stroke-linejoin:round;stroke-miterlimit:10;}
	.st2{fill:#211915;}
	.st3{font-family:'CenturyGothic';}
	.st4{font-size:3.1032px;}
	.st5{fill:none;stroke:#211915;stroke-width:0.75;stroke-miterlimit:10;}
	.st6{fill:#211915;stroke:#211915;stroke-width:0.75;stroke-linejoin:round;stroke-miterlimit:10;}
</style>
<g id="XMLID_44_">
	<path id="XMLID_54_" class="st0" d="M49.2,11.9v45.3c0,0.4-0.3,0.7-0.7,0.7H13.9c-0.4,0-0.7-0.3-0.7-0.7v-49c0-0.4,0.3-0.7,0.7-0.7
		h31c0.1,0,0.2,0,0.3,0.1c0.1,0,0.1,0.1,0.2,0.1l3.7,3.7c0.1,0.1,0.1,0.1,0.1,0.2C49.2,11.7,49.2,11.8,49.2,11.9z"/>
	<path id="XMLID_39_" class="st1" d="M49.2,11.6h-3.5c-0.3,0-0.5-0.2-0.5-0.5V7.6c0.1,0,0.1,0.1,0.2,0.1l3.7,3.7
		C49.1,11.4,49.1,11.5,49.2,11.6z"/>
	<text id="XMLID_33_" transform="matrix(1 0 0 1 17.833 12.4298)" class="st2 st3 st4">Exam</text>
	<g id="XMLID_43_">
		<g id="XMLID_36_">
			<rect id="XMLID_3_" x="17.8" y="44.7" class="st0" width="6.3" height="6.3"/>
			<g id="XMLID_22_">
				<line id="XMLID_26_" class="st5" x1="26.1" y1="45.5" x2="44.6" y2="45.5"/>
				<line id="XMLID_25_" class="st5" x1="26.1" y1="47" x2="44.3" y2="47"/>
				<line id="XMLID_24_" class="st5" x1="26.1" y1="48.6" x2="44" y2="48.6"/>
				<line id="XMLID_23_" class="st5" x1="26.1" y1="50.1" x2="44" y2="50.1"/>
			</g>
		</g>
		<g id="XMLID_29_">
			<g id="XMLID_11_">
				<line id="XMLID_7_" class="st5" x1="26.1" y1="19.5" x2="44.6" y2="19.5"/>
				<line id="XMLID_8_" class="st5" x1="26.1" y1="21" x2="44.3" y2="21"/>
				<line id="XMLID_9_" class="st5" x1="26.1" y1="22.6" x2="44" y2="22.6"/>
				<line id="XMLID_10_" class="st5" x1="26.1" y1="24.1" x2="44" y2="24.1"/>
			</g>
			<g id="XMLID_1_">
				<rect id="XMLID_2_" x="17.8" y="18.7" class="st0" width="6.3" height="6.3"/>
				<g id="XMLID_28_">
					
						<rect id="XMLID_27_" x="20" y="21.7" transform="matrix(0.752 -0.6592 0.6592 0.752 -9.0407 19.5862)" class="st6" width="3" height="0.1"/>
					
						<rect id="XMLID_6_" x="19" y="22.1" transform="matrix(-0.6592 -0.752 0.752 -0.6592 16.3378 51.6752)" class="st6" width="1.8" height="0.1"/>
				</g>
			</g>
		</g>
		<g id="XMLID_5_">
			<g id="XMLID_30_">
				<line id="XMLID_35_" class="st5" x1="26.1" y1="28.2" x2="44.6" y2="28.2"/>
				<line id="XMLID_34_" class="st5" x1="26.1" y1="29.7" x2="44.3" y2="29.7"/>
				<line id="XMLID_32_" class="st5" x1="26.1" y1="31.2" x2="44" y2="31.2"/>
				<line id="XMLID_31_" class="st5" x1="26.1" y1="32.8" x2="44" y2="32.8"/>
			</g>
			<g id="XMLID_12_">
				<rect id="XMLID_16_" x="17.8" y="27.3" class="st0" width="6.3" height="6.3"/>
				<g id="XMLID_13_">
					
						<rect id="XMLID_15_" x="20" y="30.4" transform="matrix(0.752 -0.6592 0.6592 0.752 -14.7519 21.735)" class="st6" width="3" height="0.1"/>
					
						<rect id="XMLID_14_" x="19" y="30.7" transform="matrix(-0.6592 -0.752 0.752 -0.6592 9.8227 66.0503)" class="st6" width="1.8" height="0.1"/>
				</g>
			</g>
		</g>
		<g id="XMLID_4_">
			<g id="XMLID_37_">
				<line id="XMLID_42_" class="st5" x1="26.1" y1="36.8" x2="44.6" y2="36.8"/>
				<line id="XMLID_41_" class="st5" x1="26.1" y1="38.4" x2="44.3" y2="38.4"/>
				<line id="XMLID_40_" class="st5" x1="26.1" y1="39.9" x2="44" y2="39.9"/>
				<line id="XMLID_38_" class="st5" x1="26.1" y1="41.4" x2="44" y2="41.4"/>
			</g>
			<g id="XMLID_17_">
				<rect id="XMLID_21_" x="17.8" y="36" class="st0" width="6.3" height="6.3"/>
				<g id="XMLID_18_">
					
						<rect id="XMLID_20_" x="20" y="39.1" transform="matrix(0.752 -0.6592 0.6592 0.752 -20.4631 23.8839)" class="st6" width="3" height="0.1"/>
					
						<rect id="XMLID_19_" x="19" y="39.4" transform="matrix(-0.6592 -0.752 0.752 -0.6592 3.3076 80.4254)" class="st6" width="1.8" height="0.1"/>
				</g>
			</g>
		</g>
	</g>
</g>
</svg>
