<?xml version="1.0" encoding="utf-8"?>
<!-- Generator: Adobe Illustrator 19.0.0, SVG Export Plug-In . SVG Version: 6.00 Build 0)  -->
<svg version="1.1" id="Layer_1" xmlns="http://www.w3.org/2000/svg" xmlns:xlink="http://www.w3.org/1999/xlink" x="0px" y="0px"
	 width="64px" height="64px" viewBox="0 0 64 64" style="enable-background:new 0 0 64 64;" xml:space="preserve">
<style type="text/css">
	.st0{fill:#FFFFFF;}
</style>
<g id="XMLID_2_">
	<path id="XMLID_21_" d="M64,29.8c-0.2-3.2-1-6.4-2.2-9.4c-1.1-2.8-2.6-5.5-4.5-7.8c-2.5-3.2-5.5-5.8-8.9-7.9
		c-2.6-1.6-5.5-2.8-8.4-3.5c-1.5-0.4-3.2-0.7-4.8-0.8c-1.8-0.1-3.6-0.2-5.4-0.1c-3.2,0.2-6.4,0.9-9.4,2.2c-2,0.9-3.9,1.9-5.8,3
		c-1.4,0.8-2.6,1.9-3.8,2.9c-2,1.7-3.8,3.8-5.3,6c-1.3,1.9-2.4,4-3.2,6.2c-0.6,1.8-1.2,3.5-1.6,5.3c0,0.2-0.1,0.5-0.1,0.7
		c-0.3,1.6-0.3,3.2-0.5,4.8c0,0.1,0,0.2-0.1,0.3C0.1,31.8,0,32,0,32.1v0.1c0,0.1,0.1,0.3,0.1,0.4c0,0.1,0.1,0.2,0.1,0.3
		c0,4.1,1,7.9,2.5,11.6c1.1,2.8,2.7,5.3,4.6,7.6C8,53,8.8,53.9,9.6,54.7c1.3,1.3,2.8,2.6,4.4,3.7c2.8,2,5.9,3.5,9.2,4.4
		c1.9,0.6,3.8,1,5.8,1.1c1.8,0.1,3.7,0.2,5.5,0.1c2.7-0.2,5.3-0.8,7.8-1.7c3.5-1.2,6.7-3,9.6-5.3c3.3-2.6,5.9-5.8,8-9.5
		c1.4-2.4,2.4-4.9,3.1-7.6c0.4-1.6,0.7-3.2,0.8-4.8C64,33.4,64.1,31.6,64,29.8z M61.6,33.6c-0.2,3.7-1,7.2-2.5,10.6
		c-1.1,2.4-2.4,4.7-4.1,6.7c-0.9,1-1.8,2-2.8,3c-2.4-1.7-5.1-2.7-7.8-3.8c-1.8-0.7-3.6-1.4-5-2.9c-0.8-0.8-1.2-1.8-1.2-2.8
		c0-1.3,0-2.5,0-3.8c0-0.2,0.1-0.5,0.3-0.7c1.4-1.4,2-3.2,2.5-5.1c0.1-0.3,0.1-0.6,0.2-0.9c1.4-0.4,1.9-1.5,2.1-2.8
		c0.1-0.7,0-1.5,0-2.3c0-0.2-0.1-0.4-0.2-0.5c-0.8-0.6-0.4-1.3-0.2-2c0.5-1.8,0.8-3.6,0.9-5.4c0.1-1.8-0.1-3.6-0.8-5.3
		c-0.8-2.1-2.4-3.2-4.6-3.7c-0.3-0.1-0.5-0.2-0.7-0.4c-0.8-1-1.9-1.4-3.1-1.7c-2.7-0.6-5.4-0.2-8,0.8c-2.8,1.1-4.5,3.2-5.2,6.1
		c-0.3,1.3-0.6,2.8-0.5,4.1c0.2,2.2,0.6,4.4,1,6.5c0,0.2,0,0.4,0,0.5c-0.8,0.7-0.9,1.6-0.8,2.6c0.1,1,0.3,2,1.1,2.8
		c0.3,0.3,0.7,0.5,1.1,0.8c0.3,1.9,1,3.7,2.2,5.3c0.1,0.2,0.2,0.3,0.3,0.4c0.3,0.3,0.4,0.6,0.4,1c0,1.4,0,2.7,0,4.1
		c0,1.2-0.6,2.1-1.5,2.8c-1.7,1.5-3.8,2.2-5.9,3c-2,0.8-4,1.6-5.8,2.7c-0.3,0.2-0.6,0.5-0.8,0.5c-0.3-0.1-0.7-0.4-0.9-0.7
		c-1.2-1.5-2.6-2.9-3.7-4.5c-2.2-3.2-3.6-6.8-4.4-10.7c-0.5-2.4-0.7-4.8-0.5-7.2c0.2-3.6,0.9-7,2.4-10.3c1.1-2.6,2.6-5.1,4.5-7.3
		c2.2-2.6,4.8-4.8,7.8-6.5c2.8-1.6,5.8-2.7,9-3.4c1.1-0.2,2.3-0.3,3.5-0.4c1.1-0.1,2.1-0.2,3.2-0.1c2.4,0.1,4.7,0.4,7,1
		c2,0.6,4,1.3,5.8,2.3c1.9,1,3.7,2.2,5.4,3.6c2.1,1.8,3.9,3.8,5.4,6c2.1,3.2,3.5,6.7,4.3,10.4C61.5,28.6,61.8,31.1,61.6,33.6z"/>
	<path id="XMLID_9_" class="st0" d="M0.2,31.4c0,0.2-0.2,0.5-0.2,0.7v-0.4C0,31.6,0.1,31.5,0.2,31.4c0.1-1.6,0.2-3.2,0.4-4.8
		C0.4,28.2,0.3,29.8,0.2,31.4z"/>
	<path id="XMLID_13_" class="st0" d="M9.6,54.7C8.8,53.9,8,53,7.3,52.1c-1.9-2.3-3.5-4.8-4.6-7.6C1.2,40.8,0.1,37,0.1,32.9
		c0-0.1-0.1-0.2-0.1-0.3v-0.4c0,0.2,0.2,0.5,0.2,0.7c0,4.1,1,7.9,2.6,11.6c1.1,2.8,2.7,5.3,4.6,7.6C8,53,8.8,53.9,9.6,54.7z"/>
</g>
</svg>
