<?xml version="1.0" encoding="utf-8"?>
<!-- Generator: Adobe Illustrator 19.0.0, SVG Export Plug-In . SVG Version: 6.00 Build 0)  -->
<svg version="1.1" id="Layer_1" xmlns="http://www.w3.org/2000/svg" xmlns:xlink="http://www.w3.org/1999/xlink" x="0px" y="0px"
	 width="64px" height="64px" viewBox="0 0 64 64" style="enable-background:new 0 0 64 64;" xml:space="preserve">
<style type="text/css">
	.st0{fill:#FFFFFF;}
</style>
<g id="XMLID_2_">
	<path id="XMLID_48_" d="M61.6,17.5c-2.1-1.4-4.2-2.7-6.3-4c-2.6-1.6-5.2-3.2-7.8-4.8c-3.1-1.9-6.1-3.7-9.2-5.6
		c-0.4-0.2-0.7-0.4-1.1-0.6c-0.3-0.2-0.5-0.3-0.8-0.5c-0.5-0.3-1-0.7-1.6-1c-0.3-0.2-0.5-0.3-0.8-0.5c0,0-0.1-0.1-0.2-0.1
		c-0.1-0.1-0.3-0.2-0.4-0.3c0,0-0.1,0-0.1-0.1c0,0-0.1,0-0.1,0H31c-0.1,0-0.2,0.1-0.2,0.1c-0.2,0.1-0.5,0.3-0.7,0.4
		c-0.3,0.1-0.5,0.3-0.7,0.4c-1,0.6-1.9,1.2-2.8,1.8C26,3,25.5,3.3,25,3.6c-2.9,1.7-5.7,3.5-8.6,5.2c-3,1.8-6,3.6-8.9,5.5
		c-2.3,1.4-4.5,3-6.7,4.5c-0.1,0-0.1,0.1-0.2,0.2c-0.2,0.2-0.3,0.4-0.5,0.6c0,0.4,0,0.8,0,1.3c0.7,0.8,1.5,1.5,2.2,2.4
		c0.2,0.2,0.3,0.5,0.3,0.7c0,3.5,0,7,0,10.5c0,0.5-0.3,0.6-0.5,0.9c-0.7,0.7-0.8,1.5-0.7,2.4c0,0.1,0,0.3-0.1,0.4
		c-0.4,0.6-0.8,1.2-1.2,1.8c0,0.7,0,1.3,0,2c0.6,1.8,1.5,3.5,2.7,4.9c0.6,0.8,1.6,0.8,2.2,0c1.1-1.4,2.1-2.9,2.6-4.7
		c0.4-1.5,0.2-2.8-0.9-4c-0.2-0.2-0.3-0.5-0.2-0.6c0.2-0.9-0.2-1.6-0.7-2.3c-0.2-0.3-0.4-0.6-0.4-0.9c0-2.8,0-5.5,0-8.4
		c0.5,0.4,0.8,0.7,1.3,1.1c2,1.7,4,3.4,6,5.1c0.1,0.1,0.2,0.3,0.2,0.4c0,0.1-0.2,0.2-0.4,0.3c-2.1,0.7-3.1,2.2-3.4,4.3
		c-0.3,2.5,0.4,4.5,2.3,6c0.6,0.5,1.3,0.7,2,1c0.2,0.1,0.4,0.2,0.4,0.3c0.9,2.1,1.7,4.2,2.7,6.2c1.3,2.6,2.8,5.2,4.7,7.4
		c1.6,2,3.5,3.7,5.9,4.8c0.1,0,0.3,0.1,0.4,0.2c0.9,0.3,1.8,0.5,2.8,0.8c0.1,0,0.2,0.1,0.3,0.1h3.4c0.2,0,0.5,0,0.7-0.1
		c0.3-0.1,0.6-0.2,0.9-0.3c0.3-0.1,0.6-0.2,0.9-0.4c1.5-0.6,2.9-1.5,4.1-2.5c0.7-0.6,1.4-1.2,2-1.9c0.2-0.2,0.4-0.5,0.6-0.7
		c0.3-0.3,0.5-0.6,0.8-1c0.2-0.2,0.3-0.4,0.5-0.7c0.1-0.2,0.2-0.4,0.4-0.5c0.1-0.1,0.1-0.2,0.2-0.3c0.1-0.1,0.1-0.2,0.2-0.3
		c0.1-0.2,0.3-0.4,0.4-0.6c1.3-2.2,2.4-4.5,3.5-6.8c0.5-1,0.9-2.1,1.3-3.2c0.1-0.4,0.3-0.5,0.7-0.6c2.1-0.8,3.6-2.2,4.1-4.5
		c0.5-2.2,0.2-4.3-1.5-5.9c-0.6-0.5-1.4-0.8-2.2-1.3c-0.1-0.5,0.5-0.7,0.8-1c1.2-1,2.4-2,3.5-3c0.4-0.3,0.7-0.6,1.1-0.9
		c1-0.9,2.1-1.8,3.1-2.8c0.4-0.4,0.9-0.8,1.3-1.2c0,0,0.1-0.1,0.1-0.1c0.8-0.7,1.5-1.4,2.1-2.1c0.2-0.2,0.3-0.4,0.5-0.6v-1.4
		C63,18.8,62.5,18.1,61.6,17.5z M4,43.7c-0.1,0-0.1,0-0.2,0c-0.3-0.8-0.8-1.6-1-2.4c-0.1-0.3,0.1-0.8,0.3-1.1
		C3.5,39.9,4,39.7,4.4,40c0.3,0.2,0.6,0.6,0.7,0.9C5.2,42,4.5,42.8,4,43.7z M52.5,37.5c0.2,1.6-0.3,3-1.8,3.9
		c-0.5,0.3-1.2,0.3-1.7,0.6c-0.2,0.1-0.5,0.3-0.6,0.5c-1.3,2.9-2.5,5.8-3.8,8.6c-1.4,2.9-3.2,5.5-5.6,7.6c-1.7,1.5-3.5,2.5-5.8,2.8
		c-2.5,0.3-4.7-0.5-6.7-1.9c-2.5-1.9-4.3-4.4-5.9-7c-1.8-3.1-3.3-6.4-4.5-9.8c-0.2-0.6-0.7-0.8-1.2-0.8c-2.8-0.4-3.9-3.5-2.5-5.6
		c0.2-0.4,0.9-0.6,1.4-0.7c0.5-0.1,1.2,0,1.8,0c0-1,0-2,0-3c0-0.4,0.1-0.6,0.5-0.7c2.1-0.4,4.1-1,6.2-1.3c1.2-0.2,2.4-0.3,3.7-0.4
		c1.7-0.1,3.4-0.2,5.1-0.3c1.7,0,3.4-0.1,5,0c2.8,0.3,5.6,0.7,8.3,1.1c1.3,0.2,2.6,0.6,3.9,0.9c0.3,0.1,0.4,0.2,0.4,0.5
		c0,1,0,2,0,3.1c0.5,0,0.9,0,1.3,0C51.9,35.2,52.3,36.2,52.5,37.5z M15.6,24.3c0-0.2,0.2-0.4,0.4-0.4c1.5-0.6,3-1.2,4.5-1.6
		c2-0.5,4-1,6.1-1.2c2.7-0.3,5.4-0.3,8.1-0.3c2.7,0.1,5.4,0.5,8,1.2c1.9,0.5,3.7,1.2,5.5,1.9c0.2,0.1,0.3,0.3,0.3,0.5
		c0,1.5,0,3,0,4.5c-11-2.7-22-2.7-33,0C15.6,27.4,15.6,25.8,15.6,24.3z M51.4,28.6c0-1.7,0-3.2,0-4.8c0-1.6,0-1.8-1.7-2.4
		c-2.2-0.8-4.4-1.6-6.6-2.2c-1.9-0.5-3.8-0.8-5.8-1c-2.7-0.2-5.4-0.3-8.1-0.2c-2.2,0.1-4.4,0.5-6.6,0.9c-2.4,0.4-4.8,1.1-7,2.1
		c-0.6,0.3-1.2,0.5-1.8,0.8c-0.6,0.3-0.8,0.7-0.8,1.4c0,1.8,0,3.6,0,5.6c-3.2-2.9-6.3-5.6-9.5-8.4c0.7-0.5,1.3-0.9,1.9-1.3
		c3.1-1.9,6.2-3.9,9.3-5.8c3-1.8,6-3.6,8.9-5.4c2.6-1.6,5.3-3.2,7.9-4.8c0.5-0.3,1-0.4,1.6,0c2.4,1.5,4.8,2.9,7.2,4.4
		c2.9,1.8,5.8,3.5,8.6,5.2c3,1.8,6,3.7,8.9,5.5c1.1,0.7,2.1,1.3,3.3,2.1C57.7,23.1,54.6,25.8,51.4,28.6z"/>
	<path id="XMLID_10_" class="st0" d="M63.5,21.5c-0.6,0.7-1.4,1.4-2.1,2.1C62.1,22.9,62.8,22.2,63.5,21.5z"/>
	<path id="XMLID_8_" class="st0" d="M31,0c-2,1-4,2.4-6,3.6c-2.9,1.7-5.7,3.5-8.6,5.2c-3,1.8-6,3.6-8.9,5.5c-2.3,1.4-4.5,3-6.7,4.5
		c-0.1,0.1-0.1,0.1-0.2,0.2c0-0.1,0.1-0.1,0.2-0.2c2.2-1.5,4.5-3,6.7-4.4c3-1.9,5.9-3.7,8.9-5.5c2.9-1.7,5.7-3.6,8.6-5.3
		C26.9,2.4,28.8,1,30.8,0H31z"/>
	<path id="XMLID_9_" class="st0" d="M37.2,2.4c-1.1-0.6-2.1-1.4-3.2-2C33.8,0.3,33.5,0,33.3,0h0.3c0.2,0,0.3,0.3,0.5,0.4
		C35.1,1,36.2,1.8,37.2,2.4z"/>
</g>
</svg>
