<?xml version="1.0" encoding="utf-8"?>
<!-- Generator: Adobe Illustrator 19.0.0, SVG Export Plug-In . SVG Version: 6.00 Build 0)  -->
<svg version="1.1" id="Layer_1" xmlns="http://www.w3.org/2000/svg" xmlns:xlink="http://www.w3.org/1999/xlink" x="0px" y="0px"
	 width="400px" height="400px" viewBox="0 0 400 400" style="enable-background:new 0 0 400 400;" xml:space="preserve">
<style type="text/css">
	.st0{fill:none;stroke:#211915;stroke-miterlimit:10;}
	.st1{fill:none;stroke:#211915;stroke-linejoin:round;stroke-miterlimit:10;}
	.st2{font-family:'CenturyGothic';}
	.st3{font-size:21px;}
</style>
<path id="XMLID_54_" class="st0" d="M321.9,59.4v306.8c0,2.6-2.1,4.8-4.8,4.8H82.5c-2.6,0-4.8-2.1-4.8-4.8V34.6
	c0-2.6,2.1-4.8,4.8-4.8h209.9c0.7,0,1.4,0.1,2,0.4c0.5,0.2,1,0.5,1.4,1L320.5,56c0.4,0.4,0.7,0.9,1,1.4
	C321.8,58,321.9,58.7,321.9,59.4z"/>
<path id="XMLID_39_" class="st1" d="M321.5,57.4H298c-2,0-3.6-1.6-3.6-3.6V30.3c0.5,0.2,1,0.5,1.4,1L320.5,56
	C320.9,56.4,321.3,56.9,321.5,57.4z"/>
<text id="XMLID_33_" transform="matrix(1 0 0 1 109.3919 63.25)" class="st2 st3">Exam</text>
<g id="XMLID_43_">
	<g id="XMLID_36_">
		<rect id="XMLID_3_" x="109.4" y="281.4" class="st0" width="42.3" height="42.3"/>
		<g id="XMLID_22_">
			<line id="XMLID_26_" class="st0" x1="165.1" y1="287.1" x2="290.3" y2="287.1"/>
			<line id="XMLID_25_" class="st0" x1="165.1" y1="297.4" x2="288.5" y2="297.4"/>
			<line id="XMLID_24_" class="st0" x1="165.1" y1="307.8" x2="286.2" y2="307.8"/>
			<line id="XMLID_23_" class="st0" x1="165.1" y1="318.1" x2="286.2" y2="318.1"/>
		</g>
	</g>
	<g id="XMLID_29_">
		<g id="XMLID_11_">
			<line id="XMLID_7_" class="st0" x1="165.1" y1="111.2" x2="290.3" y2="111.2"/>
			<line id="XMLID_8_" class="st0" x1="165.1" y1="121.5" x2="288.5" y2="121.5"/>
			<line id="XMLID_9_" class="st0" x1="165.1" y1="131.9" x2="286.2" y2="131.9"/>
			<line id="XMLID_10_" class="st0" x1="165.1" y1="142.3" x2="286.2" y2="142.3"/>
		</g>
		<g id="XMLID_1_">
			<rect id="XMLID_2_" x="109.4" y="105.5" class="st0" width="42.3" height="42.3"/>
			<g id="XMLID_28_">
				
					<rect id="XMLID_27_" x="124.1" y="126.2" transform="matrix(0.752 -0.6592 0.6592 0.752 -50.2274 119.9277)" class="st1" width="20.4" height="1"/>
				
					<rect id="XMLID_6_" x="117.2" y="128.4" transform="matrix(-0.6592 -0.752 0.752 -0.6592 107.5195 306.5906)" class="st1" width="12.1" height="1"/>
			</g>
		</g>
	</g>
	<g id="XMLID_5_">
		<g id="XMLID_30_">
			<line id="XMLID_35_" class="st0" x1="165.1" y1="169.8" x2="290.3" y2="169.8"/>
			<line id="XMLID_34_" class="st0" x1="165.1" y1="180.2" x2="288.5" y2="180.2"/>
			<line id="XMLID_32_" class="st0" x1="165.1" y1="190.5" x2="286.2" y2="190.5"/>
			<line id="XMLID_31_" class="st0" x1="165.1" y1="200.9" x2="286.2" y2="200.9"/>
		</g>
		<g id="XMLID_12_">
			<rect id="XMLID_16_" x="109.4" y="164.2" class="st0" width="42.3" height="42.3"/>
			<g id="XMLID_13_">
				
					<rect id="XMLID_15_" x="124.1" y="184.8" transform="matrix(0.752 -0.6592 0.6592 0.752 -88.8761 134.4693)" class="st1" width="20.4" height="1"/>
				
					<rect id="XMLID_14_" x="117.2" y="187.1" transform="matrix(-0.6592 -0.752 0.752 -0.6592 63.4303 403.8701)" class="st1" width="12.1" height="1"/>
			</g>
		</g>
	</g>
	<g id="XMLID_4_">
		<g id="XMLID_37_">
			<line id="XMLID_42_" class="st0" x1="165.1" y1="228.4" x2="290.3" y2="228.4"/>
			<line id="XMLID_41_" class="st0" x1="165.1" y1="238.8" x2="288.5" y2="238.8"/>
			<line id="XMLID_40_" class="st0" x1="165.1" y1="249.2" x2="286.2" y2="249.2"/>
			<line id="XMLID_38_" class="st0" x1="165.1" y1="259.5" x2="286.2" y2="259.5"/>
		</g>
		<g id="XMLID_17_">
			<rect id="XMLID_21_" x="109.4" y="222.8" class="st0" width="42.3" height="42.3"/>
			<g id="XMLID_18_">
				
					<rect id="XMLID_20_" x="124.1" y="243.5" transform="matrix(0.752 -0.6592 0.6592 0.752 -127.5247 149.011)" class="st1" width="20.4" height="1"/>
				
					<rect id="XMLID_19_" x="117.2" y="245.7" transform="matrix(-0.6592 -0.752 0.752 -0.6592 19.341 501.1497)" class="st1" width="12.1" height="1"/>
			</g>
		</g>
	</g>
</g>
</svg>
