<?xml version="1.0" encoding="utf-8"?>
<!-- Generator: Adobe Illustrator 19.0.0, SVG Export Plug-In . SVG Version: 6.00 Build 0)  -->
<svg version="1.1" id="Layer_1" xmlns="http://www.w3.org/2000/svg" xmlns:xlink="http://www.w3.org/1999/xlink" x="0px" y="0px"
	 width="400px" height="400px" viewBox="0 0 400 400" style="enable-background:new 0 0 400 400;" xml:space="preserve">
<style type="text/css">
	.st0{fill:#FFFFFF;stroke:#000000;stroke-miterlimit:10;}
	.st1{fill:#FFFFFF;stroke:#000000;stroke-linejoin:round;stroke-miterlimit:10;}
	.st2{font-family:'CenturyGothic';}
	.st3{font-size:21px;}
	.st4{fill:none;stroke:#000000;stroke-miterlimit:10;}
	.st5{stroke:#000000;stroke-linejoin:round;stroke-miterlimit:10;}
</style>
<path id="XMLID_54_" class="st0" d="M325.9,60.4v306.8c0,2.6-2.1,4.8-4.8,4.8H86.5c-2.6,0-4.8-2.1-4.8-4.8V35.6
	c0-2.6,2.1-4.8,4.8-4.8h209.9c0.7,0,1.4,0.1,2,0.4c0.5,0.2,1,0.5,1.4,1L324.5,57c0.4,0.4,0.7,0.9,1,1.4
	C325.8,59,325.9,59.7,325.9,60.4z"/>
<path id="XMLID_39_" class="st1" d="M325.5,58.4H302c-2,0-3.6-1.6-3.6-3.6V31.3c0.5,0.2,1,0.5,1.4,1L324.5,57
	C324.9,57.4,325.3,57.9,325.5,58.4z"/>
<text id="XMLID_33_" transform="matrix(1 0 0 1 113.3919 64.25)" class="st2 st3">Exam</text>
<g id="XMLID_43_">
	<g id="XMLID_36_">
		<rect id="XMLID_3_" x="113.4" y="282.4" class="st0" width="42.3" height="42.3"/>
		<g id="XMLID_22_">
			<line id="XMLID_26_" class="st4" x1="169.1" y1="288.1" x2="294.3" y2="288.1"/>
			<line id="XMLID_25_" class="st4" x1="169.1" y1="298.4" x2="292.5" y2="298.4"/>
			<line id="XMLID_24_" class="st4" x1="169.1" y1="308.8" x2="290.2" y2="308.8"/>
			<line id="XMLID_23_" class="st4" x1="169.1" y1="319.1" x2="290.2" y2="319.1"/>
		</g>
	</g>
	<g id="XMLID_29_">
		<g id="XMLID_11_">
			<line id="XMLID_7_" class="st4" x1="169.1" y1="112.2" x2="294.3" y2="112.2"/>
			<line id="XMLID_8_" class="st4" x1="169.1" y1="122.5" x2="292.5" y2="122.5"/>
			<line id="XMLID_9_" class="st4" x1="169.1" y1="132.9" x2="290.2" y2="132.9"/>
			<line id="XMLID_10_" class="st4" x1="169.1" y1="143.3" x2="290.2" y2="143.3"/>
		</g>
		<g id="XMLID_1_">
			<rect id="XMLID_2_" x="113.4" y="106.5" class="st0" width="42.3" height="42.3"/>
			<g id="XMLID_28_">
				
					<rect id="XMLID_27_" x="128.1" y="127.2" transform="matrix(0.752 -0.6592 0.6592 0.752 -49.8945 122.8125)" class="st5" width="20.4" height="1"/>
				
					<rect id="XMLID_6_" x="121.2" y="129.4" transform="matrix(-0.6592 -0.752 0.752 -0.6592 113.4043 311.2577)" class="st5" width="12.1" height="1"/>
			</g>
		</g>
	</g>
	<g id="XMLID_5_">
		<g id="XMLID_30_">
			<line id="XMLID_35_" class="st4" x1="169.1" y1="170.8" x2="294.3" y2="170.8"/>
			<line id="XMLID_34_" class="st4" x1="169.1" y1="181.2" x2="292.5" y2="181.2"/>
			<line id="XMLID_32_" class="st4" x1="169.1" y1="191.5" x2="290.2" y2="191.5"/>
			<line id="XMLID_31_" class="st4" x1="169.1" y1="201.9" x2="290.2" y2="201.9"/>
		</g>
		<g id="XMLID_12_">
			<rect id="XMLID_16_" x="113.4" y="165.2" class="st0" width="42.3" height="42.3"/>
			<g id="XMLID_13_">
				
					<rect id="XMLID_15_" x="128.1" y="185.8" transform="matrix(0.752 -0.6592 0.6592 0.752 -88.5432 137.3541)" class="st5" width="20.4" height="1"/>
				
					<rect id="XMLID_14_" x="121.2" y="188.1" transform="matrix(-0.6592 -0.752 0.752 -0.6592 69.315 408.5372)" class="st5" width="12.1" height="1"/>
			</g>
		</g>
	</g>
	<g id="XMLID_4_">
		<g id="XMLID_37_">
			<line id="XMLID_42_" class="st4" x1="169.1" y1="229.4" x2="294.3" y2="229.4"/>
			<line id="XMLID_41_" class="st4" x1="169.1" y1="239.8" x2="292.5" y2="239.8"/>
			<line id="XMLID_40_" class="st4" x1="169.1" y1="250.2" x2="290.2" y2="250.2"/>
			<line id="XMLID_38_" class="st4" x1="169.1" y1="260.5" x2="290.2" y2="260.5"/>
		</g>
		<g id="XMLID_17_">
			<rect id="XMLID_21_" x="113.4" y="223.8" class="st0" width="42.3" height="42.3"/>
			<g id="XMLID_18_">
				
					<rect id="XMLID_20_" x="128.1" y="244.5" transform="matrix(0.752 -0.6592 0.6592 0.752 -127.1918 151.8957)" class="st5" width="20.4" height="1"/>
				
					<rect id="XMLID_19_" x="121.2" y="246.7" transform="matrix(-0.6592 -0.752 0.752 -0.6592 25.2258 505.8168)" class="st5" width="12.1" height="1"/>
			</g>
		</g>
	</g>
</g>
</svg>
