<?xml version="1.0" encoding="utf-8"?>
<!-- Generator: Adobe Illustrator 19.0.0, SVG Export Plug-In . SVG Version: 6.00 Build 0)  -->
<svg version="1.1" id="Layer_1" xmlns="http://www.w3.org/2000/svg" xmlns:xlink="http://www.w3.org/1999/xlink" x="0px" y="0px"
	 width="64px" height="64px" viewBox="0 0 64 64" style="enable-background:new 0 0 64 64;" xml:space="preserve">
<style type="text/css">
	.st0{fill:#FFFFFF;}
</style>
<g id="XMLID_1_">
	<path id="XMLID_35_" d="M62.8,23.4C60.9,16.7,57,11.1,51.9,7c0,0-0.1,0-0.1-0.1c-0.4-0.3-0.8-0.6-1.2-0.9c-0.1-0.1-0.2-0.1-0.3-0.2
		c-0.2-0.1-0.4-0.3-0.6-0.4c0,0-0.1,0-0.1-0.1c-0.1-0.1-0.3-0.2-0.4-0.3c-1.9-1.2-3.9-2.2-5.9-2.9C43,2.1,42.7,2,42.4,1.9
		c-0.3-0.1-0.7-0.3-1.1-0.3c-1.6-0.5-3.2-0.8-4.9-1.1c-0.3,0-0.6-0.1-0.8-0.1c-0.1,0-0.2-0.1-0.3-0.1C35.2,0.2,35,0.1,34.9,0
		c0,0-0.1,0-0.2,0h-4.8c-0.3,0.1-0.7,0.2-1,0.3c-2.9,0.8-5.8,1.1-8.4,2.2C8.8,7.4,2,16.3,0.4,28.9c0,0.1-0.1,0.3-0.1,0.4
		C0.2,29.6,0,29.9,0,30.1v4.3c0.1,0.3,0.2,0.5,0.3,0.8c0.2,0.7,0.4,1.3,0.5,2c0,0.1,0.1,0.3,0.1,0.4c0.2,1.4,0.4,2.7,0.8,4
		C3.5,47.8,7.1,53,11.8,56.9c0.3,0.3,0.6,0.5,1,0.8c0.3,0.2,0.7,0.5,1,0.7c4.5,3.1,9.7,5.1,15.3,5.6c0.3,0,0.7,0.1,1,0.1h4.3
		c2,0,4.1-0.5,6.1-1c12.7-3.3,22.1-14.4,23.4-27.4c0-0.4,0.1-0.8,0.1-1.2v-4.3C64,27.9,63.4,25.6,62.8,23.4z M14.4,55.8
		c3-1.6,5.8-3.2,8.7-4.7c2.2-1.1,3.1-2.8,3.1-5.3c0-2.1-0.2-4.1-1.6-5.8c-0.8-1-1.1-2.4-1.7-3.5c-0.5-1-1-1.9-1.5-2.9
		c-0.2-0.4-0.3-0.9-0.4-1.3c0-1.2,0-2.5,0-3.7c0-0.2,0-0.5,0.1-0.7c1.7-2.1,1-4.7,0.9-7c-0.3-4.9,2.3-8.1,7.3-8.7
		c2.6-0.3,5.3-0.1,7.9,0.4c3.6,0.8,5.4,3.5,5.4,7.2c0,1.5,0,3,0,4.5c0,1.1,0.4,2,0.7,3c0.5,1.9,0.2,3.9,0.1,5.9
		c0,0.2-0.2,0.5-0.4,0.5c-1.6,0.5-1.6,2-2.2,3.2c-0.8,1.5-1.6,3-2.6,4.4c-2,2.7-0.8,8.1,2.2,9.7c3.2,1.6,6.4,3.2,9.6,4.8
		C41.5,63.3,25.3,64.6,14.4,55.8z M53.3,53.3c-0.8,0.9-1.5,1.2-2.7,0.5c-2.9-1.6-5.9-3-8.9-4.5c-1.5-0.7-2.2-1.8-2.2-3.5
		c0-1.7,0.2-3.1,1.3-4.5c0.7-0.8,1.1-1.8,1.5-2.7c0.6-1.3,1-2.6,2.3-3.5c0.4-0.3,0.7-0.8,0.8-1.3c0.4-2.7,0.9-5.4-0.4-8
		c-0.2-0.4-0.3-0.8-0.3-1.2c0-1.5,0-3,0-4.5c0.2-5.1-2.4-8.6-7.4-9.9c-3.6-0.9-7.2-0.9-10.8,0.2c-4.5,1.4-6.9,4.8-6.7,9.5
		c0,1.6,0,3.1,0,4.7c0,0.3,0.1,0.6-0.1,0.8c-1.6,2.2-0.9,4.7-1,7c0,0.7,0.3,1.4,0.6,2c1.4,2.8,3,5.5,4.3,8.4c1.1,2.1,0,5.3-2.1,6.4
		c-3,1.7-6.1,3.3-9.2,5c-5.4-5-8.6-11-9.6-18.3C0.7,20.5,11.5,6,27,3c15.6-3,31.6,7.8,34.5,23.5C63.3,36.8,60.5,45.7,53.3,53.3z"/>
	<path id="XMLID_10_" class="st0" d="M0,34.4c0,0.9,0.3,1.8,0.5,2.7c-0.1-0.7-0.5-1.3-0.5-2V34.4z"/>
	<path id="XMLID_11_" class="st0" d="M12.8,57.6c-5.2-3.9-9.2-9.5-11.2-16c-0.4-1.3-0.5-2.7-0.8-4c0.3,1.4,0.5,2.7,0.9,4
		C3.7,48.1,7.6,53.6,12.8,57.6z"/>
	<path id="XMLID_8_" class="st0" d="M51.8,7C47.3,3.4,41.7,1,35.7,0.4c-0.3,0-0.6-0.4-1-0.4h0.6c0.1,0,0.2,0.2,0.3,0.2
		C41.7,0.9,47.3,3.4,51.8,7z"/>
	<path id="XMLID_9_" class="st0" d="M29.9,0c-3.2,1-6.5,1.3-9.4,2.5C8.8,7.4,2,16.3,0.4,28.9C0.3,29.3,0,29.8,0,30.1v-0.9
		c0-0.1,0.2-0.3,0.3-0.4C1.9,16.3,8.7,7.3,20.4,2.4C23,1.3,26,1,28.9,0H29.9z"/>
</g>
</svg>
